<?xml version="1.0" encoding="utf-8"?>
<!-- Generator: Adobe Illustrator 16.0.0, SVG Export Plug-In . SVG Version: 6.00 Build 0)  -->
<!DOCTYPE svg PUBLIC "-//W3C//DTD SVG 1.1//EN" "http://www.w3.org/Graphics/SVG/1.1/DTD/svg11.dtd">
<svg version="1.1" id="圖層_1" xmlns="http://www.w3.org/2000/svg" xmlns:xlink="http://www.w3.org/1999/xlink" x="0px" y="0px"
	 width="315px" height="52px" viewBox="0 0 315 52" enable-background="new 0 0 315 52" xml:space="preserve">
<g display="none">
	<polyline display="inline" fill="#E48D2D" points="12.771,23.618 13.973,24.371 15.244,20.388 14.078,19.657 	"/>
	
		<radialGradient id="SVGID_1_" cx="213.2539" cy="72.9258" r="46.2067" fx="221.2852" fy="72.3378" gradientTransform="matrix(1.537 0 0 1.5952 -247.6523 -96.3252)" gradientUnits="userSpaceOnUse">
		<stop  offset="0" style="stop-color:#DA582A"/>
		<stop  offset="0.0621" style="stop-color:#DF702B"/>
		<stop  offset="0.1935" style="stop-color:#E6AB32"/>
		<stop  offset="0.3005" style="stop-color:#E8DD40"/>
		<stop  offset="0.3824" style="stop-color:#E5A932"/>
		<stop  offset="0.4964" style="stop-color:#DA582A"/>
		<stop  offset="0.5444" style="stop-color:#DD6B2C"/>
		<stop  offset="0.6442" style="stop-color:#E59F31"/>
		<stop  offset="0.7586" style="stop-color:#E8DD40"/>
		<stop  offset="1" style="stop-color:#DA582A"/>
	</radialGradient>
	<path display="inline" fill="url(#SVGID_1_)" d="M17.75,28.092c0-12.029,17.991-21.779,40.181-21.779
		c15.421,0,28.804,4.709,35.542,11.616c-6.041-8.431-20.97-14.4-38.441-14.4c-22.814,0-41.311,10.177-41.311,22.73
		c0,9.09,9.706,16.931,23.727,20.567C25.657,43.028,17.75,36.062,17.75,28.092z"/>
	<g display="inline">
		
			<radialGradient id="SVGID_2_" cx="229" cy="80.9043" r="6.8375" gradientTransform="matrix(1.537 0 0 1.5952 -247.6523 -96.3252)" gradientUnits="userSpaceOnUse">
			<stop  offset="0" style="stop-color:#FFFFFF"/>
			<stop  offset="0.2974" style="stop-color:#E4E4E4"/>
			<stop  offset="0.7551" style="stop-color:#C3C1C0"/>
			<stop  offset="1" style="stop-color:#B5B3B3"/>
		</radialGradient>
		<path fill="url(#SVGID_2_)" d="M98.033,32.816c1.28-1.375,3.229-2.255,5.405-2.255c3.861,0,6.992,2.764,6.992,6.173
			c0,3.413-3.13,6.173-6.992,6.173c-3.825,0-6.928-2.711-6.988-6.075"/>
		
			<radialGradient id="SVGID_3_" cx="229.0039" cy="80.9004" r="6.8446" gradientTransform="matrix(1.537 0 0 1.5952 -247.6523 -96.3252)" gradientUnits="userSpaceOnUse">
			<stop  offset="0" style="stop-color:#FFFFFF"/>
			<stop  offset="0.2974" style="stop-color:#E4E4E4"/>
			<stop  offset="0.7551" style="stop-color:#C3C1C0"/>
			<stop  offset="1" style="stop-color:#B5B3B3"/>
		</radialGradient>
		<path fill="url(#SVGID_3_)" d="M98.033,32.816c-0.993,1.069-1.588,2.43-1.588,3.918c0,0.034,0.003,0.064,0.005,0.098"/>
		
			<radialGradient id="SVGID_4_" cx="229.0088" cy="80.8994" r="6.8507" gradientTransform="matrix(1.537 0 0 1.5952 -247.6523 -96.3252)" gradientUnits="userSpaceOnUse">
			<stop  offset="0" style="stop-color:#FFFFFF"/>
			<stop  offset="0.2974" style="stop-color:#E4E4E4"/>
			<stop  offset="0.7551" style="stop-color:#C3C1C0"/>
			<stop  offset="1" style="stop-color:#B5B3B3"/>
		</radialGradient>
		<polyline fill="url(#SVGID_4_)" points="98.033,32.816 98.419,32.977 96.888,37.011 96.451,36.834 		"/>
		
			<radialGradient id="SVGID_5_" cx="229.0029" cy="80.9033" r="6.8417" gradientTransform="matrix(1.537 0 0 1.5952 -247.6523 -96.3252)" gradientUnits="userSpaceOnUse">
			<stop  offset="0" style="stop-color:#FFFFFF"/>
			<stop  offset="0.2974" style="stop-color:#E4E4E4"/>
			<stop  offset="0.7551" style="stop-color:#C3C1C0"/>
			<stop  offset="1" style="stop-color:#B5B3B3"/>
		</radialGradient>
		<polyline fill="url(#SVGID_5_)" points="98.033,32.816 96.323,32.12 94.792,36.155 96.451,36.834 		"/>
	</g>
	
		<linearGradient id="SVGID_6_" gradientUnits="userSpaceOnUse" x1="291.3896" y1="323.8066" x2="376.5456" y2="315.403" gradientTransform="matrix(1 0 0 1 -277.4395 -288.9395)">
		<stop  offset="0" style="stop-color:#999999"/>
		<stop  offset="0.1002" style="stop-color:#9B9B9B"/>
		<stop  offset="0.1526" style="stop-color:#A4A4A3"/>
		<stop  offset="0.1939" style="stop-color:#B1B1B1"/>
		<stop  offset="0.2294" style="stop-color:#C4C4C4"/>
		<stop  offset="0.2612" style="stop-color:#DDDCDC"/>
		<stop  offset="0.2899" style="stop-color:#FCFCFD"/>
		<stop  offset="0.2938" style="stop-color:#FFFFFF"/>
		<stop  offset="0.3133" style="stop-color:#EAEAEA"/>
		<stop  offset="0.3517" style="stop-color:#C8C7C7"/>
		<stop  offset="0.3879" style="stop-color:#AEAEAE"/>
		<stop  offset="0.4207" style="stop-color:#A09E9F"/>
		<stop  offset="0.4469" style="stop-color:#999999"/>
		<stop  offset="0.5196" style="stop-color:#C3C1C0"/>
		<stop  offset="0.6203" style="stop-color:#FFFFFF"/>
		<stop  offset="0.7083" style="stop-color:#DDDCDC"/>
		<stop  offset="0.7453" style="stop-color:#CCCCCC"/>
		<stop  offset="0.7546" style="stop-color:#D1D1D1"/>
		<stop  offset="0.8268" style="stop-color:#F2F2F2"/>
		<stop  offset="0.8662" style="stop-color:#FFFFFF"/>
		<stop  offset="0.9076" style="stop-color:#FEFFFF"/>
		<stop  offset="0.9352" style="stop-color:#F3F3F3"/>
		<stop  offset="0.9587" style="stop-color:#E4E4E4"/>
		<stop  offset="0.9798" style="stop-color:#CFCFCF"/>
		<stop  offset="0.9994" style="stop-color:#B5B4B4"/>
		<stop  offset="1" style="stop-color:#B5B3B3"/>
	</linearGradient>
	<path display="inline" fill="url(#SVGID_6_)" d="M94.439,26.639c0,12.026-17.989,21.78-40.18,21.78
		c-15.417,0-28.802-4.713-35.538-11.62C24.759,45.229,39.688,51.2,57.161,51.2c22.814,0,41.313-10.173,41.313-22.727
		c0-9.093-9.707-16.936-23.729-20.571C86.533,11.699,94.439,18.667,94.439,26.639z"/>
	
		<radialGradient id="SVGID_7_" cx="199.5879" cy="78.4619" r="5.7814" gradientTransform="matrix(1.537 0 0 1.5952 -247.6523 -96.3252)" gradientUnits="userSpaceOnUse">
		<stop  offset="0" style="stop-color:#C3661A"/>
		<stop  offset="0.0496" style="stop-color:#C7701B"/>
		<stop  offset="0.1333" style="stop-color:#CE8821"/>
		<stop  offset="0.2408" style="stop-color:#DAAE2C"/>
		<stop  offset="0.3547" style="stop-color:#E8DD40"/>
		<stop  offset="0.5038" style="stop-color:#E8CA3D"/>
		<stop  offset="0.7291" style="stop-color:#E8A743"/>
		<stop  offset="0.8279" style="stop-color:#D68537"/>
		<stop  offset="0.94" style="stop-color:#C2642C"/>
		<stop  offset="1" style="stop-color:#BB5828"/>
	</radialGradient>
	<path display="inline" fill="url(#SVGID_7_)" d="M57.354,22.977l0.167-0.714c1.341-0.149,2.487-0.362,3.439-0.638
		c-0.228,0.743-0.476,1.715-0.738,2.915l-1.047,4.475l1.273,0.078c0.591,0.033,1.237-0.136,1.933-0.509
		c0.698-0.37,1.32-1.023,1.87-1.953c0.549-0.933,0.824-1.938,0.824-3.018c0-1.069-0.336-1.918-1.004-2.541
		c-0.669-0.625-1.691-0.937-3.065-0.937c-1.566,0-3.104,0.448-4.608,1.343c-1.504,0.896-2.662,2.039-3.48,3.429
		c-0.816,1.394-1.225,2.768-1.225,4.123c0,0.667,0.105,1.246,0.318,1.738c0.215,0.492,0.592,0.978,1.136,1.452
		c0.453,0.384,0.68,0.755,0.68,1.114c0,0.235-0.075,0.43-0.222,0.59c-0.152,0.158-0.328,0.235-0.531,0.235
		c-0.547,0-1.077-0.428-1.585-1.286c-0.511-0.857-0.767-1.941-0.767-3.258c0-2.404,0.804-4.595,2.41-6.575
		c2.104-2.607,4.93-3.91,8.476-3.91c1.349,0,2.454,0.201,3.317,0.606c0.864,0.4,1.509,0.952,1.939,1.65
		c0.432,0.7,0.645,1.458,0.645,2.272c0,1.038-0.302,2.057-0.905,3.057c-0.603,1-1.491,1.811-2.663,2.423
		c-1.172,0.613-2.477,0.923-3.912,0.923c-0.223,0-0.566-0.019-1.034-0.048l-1.114,4.942c-0.187,0.837-0.393,1.662-0.622,2.474
		c0.718,0.2,1.345,0.303,1.88,0.303c0.673,0,1.396-0.146,2.17-0.445l-0.166,0.89c-0.719,0.227-1.328,0.334-1.827,0.334
		c-0.478,0-1.181-0.061-2.102-0.172c-0.737-0.107-1.338-0.162-1.799-0.162c-0.894,0-1.81,0.123-2.753,0.366l0.166-0.843
		c0.961-0.181,1.616-0.437,1.967-0.776c0.498-0.478,0.902-1.438,1.217-2.878l2.088-9.514c0.094-0.445,0.137-0.756,0.137-0.939
		c0-0.169-0.059-0.319-0.178-0.452c-0.118-0.133-0.26-0.199-0.426-0.199C57.569,22.946,57.474,22.956,57.354,22.977z"/>
	
		<radialGradient id="SVGID_8_" cx="208.6289" cy="78.5117" r="5.6196" gradientTransform="matrix(1.537 0 0 1.5952 -247.6523 -96.3252)" gradientUnits="userSpaceOnUse">
		<stop  offset="0" style="stop-color:#C3661A"/>
		<stop  offset="0.0496" style="stop-color:#C7701B"/>
		<stop  offset="0.1333" style="stop-color:#CE8821"/>
		<stop  offset="0.2408" style="stop-color:#DAAE2C"/>
		<stop  offset="0.3547" style="stop-color:#E8DD40"/>
		<stop  offset="0.5038" style="stop-color:#E8CA3D"/>
		<stop  offset="0.7291" style="stop-color:#E8A743"/>
		<stop  offset="0.8279" style="stop-color:#D68537"/>
		<stop  offset="0.94" style="stop-color:#C2642C"/>
		<stop  offset="1" style="stop-color:#BB5828"/>
	</radialGradient>
	<path display="inline" fill="url(#SVGID_8_)" d="M65.337,38.45l0.167-0.854c0.971-0.215,1.618-0.459,1.945-0.735
		c0.329-0.276,0.625-0.767,0.886-1.471c0.264-0.701,0.622-2.159,1.075-4.36c0.599-2.909,1.143-5.008,1.634-6.29
		c0.745-1.927,1.678-3.358,2.788-4.289c1.113-0.932,2.238-1.398,3.373-1.398c0.729,0,1.345,0.212,1.844,0.633
		c0.498,0.426,0.747,0.867,0.747,1.319c0,0.255-0.08,0.472-0.229,0.653c-0.15,0.183-0.334,0.27-0.546,0.27
		c-0.276,0-0.612-0.206-1.008-0.619c-0.442-0.445-0.788-0.736-1.031-0.875c-0.245-0.136-0.48-0.207-0.711-0.207
		c-0.266,0-0.53,0.087-0.788,0.255c-0.36,0.232-0.745,0.674-1.154,1.324c-0.412,0.651-0.838,1.619-1.281,2.9
		c-0.287,0.865-0.654,2.297-1.096,4.288c-0.697,3.168-1.224,5.269-1.583,6.309c-0.258,0.738-0.574,1.355-0.943,1.843
		c1.32-0.329,2.373-0.494,3.158-0.494c0.489,0,0.942,0.034,1.358,0.102c0.417,0.068,1.141,0.242,2.174,0.519
		c0.894,0.245,1.521,0.363,1.882,0.363c0.351,0,0.648-0.128,0.893-0.374c0.246-0.25,0.367-0.537,0.367-0.854
		c0-0.202-0.064-0.484-0.193-0.846c-0.122-0.338-0.183-0.609-0.183-0.813c0-0.287,0.075-0.513,0.222-0.676
		c0.148-0.165,0.343-0.247,0.583-0.247c0.277,0,0.513,0.138,0.706,0.419c0.191,0.282,0.292,0.667,0.292,1.151
		c0,0.924-0.335,1.717-0.998,2.385c-0.667,0.667-1.566,1.002-2.701,1.002c-0.563,0-1.288-0.05-2.173-0.143
		c-2.99-0.311-4.949-0.464-5.874-0.464C67.579,38.18,66.378,38.272,65.337,38.45z"/>
	<g display="inline">
		
			<radialGradient id="SVGID_9_" cx="130.4888" cy="205.6973" r="8.9695" fx="134.2836" fy="205.8177" gradientTransform="matrix(-1.5356 -0.0689 0.0664 -1.5937 194.748 357.9912)" gradientUnits="userSpaceOnUse">
			<stop  offset="0" style="stop-color:#FFFFFF"/>
			<stop  offset="0.0258" style="stop-color:#FFFAF5"/>
			<stop  offset="0.0694" style="stop-color:#FCECD9"/>
			<stop  offset="0.1254" style="stop-color:#F4D3AE"/>
			<stop  offset="0.1917" style="stop-color:#EBB372"/>
			<stop  offset="0.2659" style="stop-color:#E59133"/>
			<stop  offset="0.2759" style="stop-color:#E48D2D"/>
			<stop  offset="0.356" style="stop-color:#E2852C"/>
			<stop  offset="0.7756" style="stop-color:#DA652C"/>
			<stop  offset="1" style="stop-color:#DA582A"/>
		</radialGradient>
		<path fill="url(#SVGID_9_)" d="M12.773,23.964c-1.34,1.32-3.318,2.11-5.494,2.014c-3.861-0.174-6.872-3.076-6.729-6.483
			c0.143-3.404,3.385-6.026,7.244-5.853c3.818,0.172,6.806,3.018,6.726,6.381"/>
	</g>
	<path display="inline" fill="#DE7937" d="M12.773,23.964c1.034-1.018,1.688-2.357,1.749-3.841c0.001-0.032-0.002-0.066-0.002-0.098
		"/>
	<g display="inline">
		
			<radialGradient id="SVGID_10_" cx="184.8379" cy="90.9473" r="7.1084" gradientTransform="matrix(1.5565 0 0 1.5475 -247.7695 -111.7168)" gradientUnits="userSpaceOnUse">
			<stop  offset="0" style="stop-color:#C3661A"/>
			<stop  offset="0.0496" style="stop-color:#C7701B"/>
			<stop  offset="0.1333" style="stop-color:#CE8821"/>
			<stop  offset="0.2408" style="stop-color:#DAAE2C"/>
			<stop  offset="0.3547" style="stop-color:#E8DD40"/>
			<stop  offset="0.5038" style="stop-color:#E8CA3D"/>
			<stop  offset="0.7291" style="stop-color:#E8A743"/>
			<stop  offset="0.8279" style="stop-color:#D68537"/>
			<stop  offset="0.94" style="stop-color:#C2642C"/>
			<stop  offset="1" style="stop-color:#BB5828"/>
		</radialGradient>
		<path fill="url(#SVGID_10_)" d="M35.262,21.407l0.181-0.866c0.348-0.079,0.768-0.118,1.255-0.118c0.976,0,1.57-0.009,1.778-0.029
			c0.398-0.02,0.952-0.079,1.659-0.176c0,1.827,0.293,3.857,0.877,6.094c1.447-1.954,2.938-3.731,4.476-5.331
			c0.944-0.998,1.832-1.696,2.659-2.098c0.588-0.284,1.21-0.425,1.867-0.425c0.479,0,0.833,0.083,1.06,0.256
			c0.229,0.171,0.344,0.395,0.344,0.669c0,0.273-0.104,0.487-0.313,0.643c-0.212,0.157-0.654,0.264-1.332,0.323
			c-0.947,0.098-1.713,0.292-2.299,0.58c-0.59,0.289-1.278,0.848-2.062,1.68c-1.294,1.377-2.649,3.005-4.06,4.883
			c0.485,1.411,0.85,2.786,1.087,4.126c0.239,1.34,0.357,2.649,0.357,3.918c0,0.387-0.011,0.797-0.032,1.234
			c0.438,0.108,0.873,0.163,1.301,0.163c0.396,0,0.936-0.03,1.614-0.088l-0.179,0.835c-0.399,0.03-0.658,0.045-0.779,0.045
			c-0.268,0-0.697-0.03-1.284-0.091c-0.498-0.055-0.911-0.087-1.24-0.087c-0.319,0-0.897,0.047-1.734,0.133
			c0.119-0.677,0.181-1.276,0.181-1.795c0-1.167-0.073-2.276-0.224-3.332c-0.151-1.055-0.374-2.052-0.674-2.993l-2.42,3.35
			c-2.092,2.844-3.683,4.672-4.769,5.473c-1.087,0.805-2.09,1.204-3.018,1.204c-0.338,0-0.605-0.087-0.799-0.265
			c-0.194-0.175-0.293-0.388-0.293-0.631c0-0.255,0.1-0.465,0.299-0.64c0.198-0.17,0.578-0.29,1.138-0.358
			c1.064-0.139,1.981-0.494,2.75-1.072c1.016-0.76,2.317-2.216,3.902-4.359l2.852-3.861c-0.968-2.997-1.452-5.4-1.452-7.204
			c-0.418-0.02-0.721-0.03-0.911-0.03C36.506,21.171,35.918,21.249,35.262,21.407z"/>
	</g>
</g>
<g enable-background="new    ">
	<path fill="#FFFFFF" stroke="#FFFFFF" stroke-width="0.4" stroke-miterlimit="10" d="M119.302,9.455
		c-0.152,0.639-0.359,1.437-0.623,2.392l-0.405,1.394v13.727h-1.018V15.868c-0.58,1.199-1.077,2.099-1.492,2.698l-0.771-0.85
		c1.469-2.214,2.583-5.083,3.34-8.607L119.302,9.455z M132.495,10.67h-5.969c-0.099,0.323-0.253,0.679-0.464,1.067h4.516v4.981
		h1.779v2.49h-1.067v-1.581h-10.732v1.581h-0.988v-2.49h1.7v-4.981h3.676c0.171-0.29,0.336-0.646,0.494-1.067h-5.406V9.741h12.462
		V10.67z M132.702,26.294l-0.524,0.811c-2.286-0.415-4.184-0.916-5.692-1.502c-1.621,0.751-3.752,1.219-6.394,1.403l-0.504-0.959
		c2.404-0.085,4.318-0.395,5.741-0.929c-0.902-0.441-1.785-0.969-2.648-1.581c-0.962,0.527-1.779,0.899-2.451,1.117l-0.583-0.83
		c1.047-0.349,1.802-0.659,2.263-0.929c-0.264-0.257-0.452-0.445-0.563-0.563l0.692-0.593c0.257,0.29,0.504,0.534,0.741,0.731
		c0.415-0.23,0.949-0.675,1.601-1.334c-0.797-0.099-1.195-0.518-1.195-1.255v-1.522h1.057V19.9c0,0.178,0.071,0.298,0.212,0.36
		c0.142,0.063,0.687,0.094,1.636,0.094c1.067,0,1.693-0.079,1.877-0.237s0.277-0.514,0.277-1.067l0.909,0.425
		c-0.099,0.89-0.377,1.41-0.835,1.562c-0.458,0.152-1.379,0.217-2.762,0.198c-0.382,0.448-0.626,0.718-0.731,0.811h5.366v0.83
		c-0.593,0.751-1.43,1.485-2.51,2.204C129.197,25.592,130.87,25.998,132.702,26.294z M122.642,18.843
		c-0.619,1.239-1.251,2.178-1.897,2.816l-0.81-0.603c0.744-0.712,1.37-1.578,1.877-2.599L122.642,18.843z M129.54,13.397v-0.85
		h-7.263v0.85H129.54z M129.54,15.058v-0.89h-7.263v0.89H129.54z M129.54,16.718v-0.909h-7.263v0.909H129.54z M128.858,22.875
		h-5.159l-0.148,0.158c0.903,0.679,1.888,1.212,2.955,1.601C127.244,24.265,128.028,23.679,128.858,22.875z M127.296,18.991
		l-0.504,0.741c-0.567-0.396-1.153-0.725-1.759-0.988l0.524-0.731C126.156,18.25,126.736,18.576,127.296,18.991z M132.139,21.136
		l-0.85,0.504c-0.474-1.001-1.097-1.96-1.868-2.876l0.771-0.523C131.075,19.281,131.724,20.246,132.139,21.136z"/>
	<path fill="#FFFFFF" stroke="#FFFFFF" stroke-width="0.4" stroke-miterlimit="10" d="M143.019,26.877h-1.048v-1.433h-4.477v1.433
		h-1.087v-8.864h6.611V26.877z M141.952,24.417V19.07h-4.457v5.346H141.952z M150.45,15.71h-11.918V9.702h11.918V15.71z
		 M149.393,14.702v-3.973H139.6v3.973H149.393z M152.071,26.877h-1.077v-1.433h-4.506v1.433h-1.077v-8.864h6.661V26.877z
		 M150.994,24.417V19.07h-4.506v5.346H150.994z"/>
	<path fill="#FFFFFF" stroke="#FFFFFF" stroke-width="0.4" stroke-miterlimit="10" d="M173.279,26.373h-17.63v-1.028h8.568V19.88
		h-6.483v-1.077h6.483v-4.615h-5.485c-0.764,1.41-1.607,2.579-2.529,3.508l-0.85-0.731c1.792-1.858,3.1-4.227,3.923-7.105
		l1.047,0.267c-0.27,0.975-0.619,1.967-1.047,2.975h4.941V9.128h1.088v3.973h7.688v1.087h-7.688v4.615h6.758v1.077h-6.758v5.465
		h7.975V26.373z"/>
	<path fill="#FFFFFF" stroke="#FFFFFF" stroke-width="0.4" stroke-miterlimit="10" d="M193.537,18.932h-6.552v1.087h4.932v6.878
		h-1.009v-0.722h-12.224v0.722h-1.038v-6.878h5.188c0.039-0.527,0.06-0.89,0.06-1.087h-6.918v-0.919h17.561V18.932z M185.503,10.423
		h-5.158l0.543,0.346c-0.105,0.204-0.214,0.385-0.326,0.543h4.151v0.83h-2.224c-0.021,0.231-0.066,0.524-0.139,0.879h2.747v0.87
		h-2.55c0.652,0.369,1.374,0.867,2.165,1.492l-0.584,0.672c-0.718-0.639-1.521-1.192-2.411-1.66
		c-0.56,0.666-1.449,1.192-2.668,1.581l-0.543-0.771c1.073-0.27,1.887-0.708,2.44-1.314h-2.44v-0.87h2.846
		c0.125-0.283,0.188-0.576,0.188-0.879h-1.759c-0.191,0.165-0.422,0.336-0.691,0.514l-0.752-0.573
		c0.719-0.481,1.271-1.035,1.661-1.661h-2.165v5.406c0,0.125,0.052,0.237,0.153,0.336c0.103,0.099,0.213,0.148,0.331,0.148h6.374
		v0.87h-6.354c-0.981,0-1.472-0.504-1.472-1.512v-5.248h-0.613V9.514h9.25V10.423z M190.908,25.286v-2.372h-3.438
		c-0.626,0-1.033-0.139-1.221-0.415c-0.188-0.277-0.281-0.633-0.281-1.067v-0.504h-2.362c-0.454,1.304-1.778,2.19-3.973,2.658
		l-0.504-0.939c1.72-0.237,2.866-0.811,3.439-1.719h-3.884v4.358H190.908z M188.922,24.476h-8.32v-0.87h8.32V24.476z
		 M185.968,20.019v-1.087h-2.065c0,0.33-0.026,0.692-0.079,1.087H185.968z M193.379,12.231h-1.848c-0.725,0-1.087-0.392-1.087-1.176
		v-0.593h-2.836c-0.146,0.831-0.604,1.548-1.374,2.155l-0.811-0.593c0.89-0.468,1.301-1.285,1.235-2.451h4.754v1.522
		c0,0.178,0.095,0.267,0.286,0.267h1.68V12.231z M193.251,16.866l-0.544,0.741c-0.705-0.461-1.62-0.965-2.747-1.512
		c-1.298,0.698-2.662,1.176-4.091,1.433l-0.445-0.83c1.153-0.217,2.3-0.586,3.439-1.107c-0.698-0.362-1.588-0.734-2.669-1.117
		l0.405-0.543h-0.869v-0.909h6.858v0.909c-0.547,0.659-1.127,1.189-1.739,1.591C191.383,15.799,192.184,16.247,193.251,16.866z
		 M190.908,22.025v-1.097h-3.923v0.731c0,0.244,0.118,0.366,0.355,0.366H190.908z M191.215,13.931h-4.012
		c1.562,0.652,2.443,1.028,2.648,1.127C190.385,14.709,190.84,14.333,191.215,13.931z"/>
	<path fill="#FFFFFF" stroke="#FFFFFF" stroke-width="0.4" stroke-miterlimit="10" d="M202.649,25.434
		c0,0.751-0.369,1.196-1.107,1.334c-0.369,0.065-0.909,0.079-1.62,0.04l-0.445-1.028c0.566,0.046,1.101,0.049,1.602,0.01
		c0.355-0.033,0.533-0.224,0.533-0.573v-6.384c-0.554,0.646-1.43,1.581-2.629,2.807l-0.563-0.583
		c-0.277,2.438-0.735,4.352-1.374,5.741l-0.88-0.682c0.981-2.227,1.473-5.037,1.473-8.43V9.652h5.011V25.434z M201.611,17.36v-1.562
		l-0.573,0.494c-0.494-0.606-1.294-1.36-2.401-2.263v3.794c0,0.982-0.049,1.924-0.148,2.827
		C199.45,19.788,200.491,18.691,201.611,17.36z M201.611,10.69h-2.975v2.886l0.504-0.504c0.83,0.626,1.654,1.374,2.471,2.243V10.69z
		 M213.767,25.948l-0.603,1.008c-1.845-0.586-3.473-1.41-4.882-2.47c-1.245,0.922-2.784,1.732-4.615,2.431l-0.672-0.938
		c1.713-0.475,3.234-1.203,4.565-2.184c-1.212-1.206-2.296-2.876-3.251-5.01h-0.682v-1.048h8.488v1.048
		c-0.593,1.99-1.581,3.669-2.965,5.04C210.449,24.799,211.988,25.507,213.767,25.948z M213.569,16.402h-2.343
		c-0.362,0-0.665-0.142-0.909-0.425c-0.236-0.264-0.355-0.58-0.355-0.949V10.72h-3.646v0.672c0,1.271-0.165,2.388-0.494,3.35
		c-0.362,1.074-0.926,1.901-1.689,2.48l-0.949-0.603c0.804-0.553,1.377-1.331,1.72-2.332c0.25-0.751,0.375-1.66,0.375-2.728V9.692
		h5.732v5.139c0,0.145,0.054,0.277,0.163,0.396c0.108,0.118,0.222,0.178,0.341,0.178h2.056V16.402z M211.049,18.784h-5.603
		c0.81,1.838,1.795,3.288,2.954,4.348C209.527,22.064,210.41,20.615,211.049,18.784z"/>
	<path fill="#FFFFFF" stroke="#FFFFFF" stroke-width="0.4" stroke-miterlimit="10" d="M222.098,9.475
		c-0.244,0.612-0.593,1.377-1.048,2.292l-0.672,1.354v13.657h-1.057V14.88c-0.936,1.43-1.818,2.487-2.648,3.172l-0.505-1.047
		c1.825-1.667,3.463-4.279,4.912-7.837L222.098,9.475z M226.189,9.475c-1.146,2.905-2.511,5.139-4.092,6.7l-0.909-0.652
		c1.496-1.377,2.81-3.508,3.943-6.394L226.189,9.475z M232.454,16.6c0.021,0.593,0.03,1.166,0.03,1.719
		c0,1.727-0.084,3.311-0.252,4.753s-0.345,2.326-0.529,2.648s-0.474,0.588-0.869,0.796s-1.048,0.311-1.957,0.311
		c-0.408,0-0.794-0.023-1.156-0.069l-0.346-1.067c0.619,0.059,1.192,0.089,1.72,0.089c0.679,0,1.126-0.078,1.344-0.232
		s0.392-0.403,0.523-0.746c0.132-0.342,0.257-1.294,0.376-2.856c0.118-1.562,0.161-3.014,0.128-4.358h-4.041
		c-0.185,1.996-0.688,3.73-1.508,5.203c-0.82,1.472-2.14,2.828-3.958,4.066l-0.73-0.87c3.268-2.069,4.967-4.869,5.099-8.4h-3.992
		V16.6H232.454z M234.135,15.344l-0.722,0.85c-1.528-1.172-2.866-3.054-4.013-5.643h-1.551V9.534h2.224
		C231.166,12.222,232.521,14.159,234.135,15.344z"/>
	<path fill="#FFFFFF" stroke="#FFFFFF" stroke-width="0.4" stroke-miterlimit="10" d="M254.215,12.567h-10.021
		c-0.494,0.844-0.992,1.601-1.492,2.273h9.951v10.544c0,0.593-0.188,1-0.563,1.221c-0.375,0.221-1.262,0.331-2.658,0.331
		c-0.534,0-1.058-0.02-1.571-0.06l-0.504-1.047c0.612,0.053,1.268,0.079,1.967,0.079c1.106,0,1.764-0.048,1.971-0.144
		c0.208-0.095,0.312-0.268,0.312-0.519v-2.639h-9.961c-0.356,1.786-1.104,3.258-2.243,4.417l-1.009-0.593
		c1.674-1.489,2.511-4.104,2.511-7.847c0-0.396-0.01-0.896-0.03-1.502c-1.311,1.298-2.529,2.322-3.656,3.073l-0.811-0.8
		c2.82-1.891,4.997-4.154,6.532-6.79h-6.334V11.52h6.947c0.389-0.698,0.78-1.496,1.176-2.392l1.087,0.307
		c-0.389,0.863-0.731,1.558-1.027,2.085h9.428V12.567z M251.605,21.62v-2.431h-9.694c0,1.042-0.033,1.852-0.099,2.431H251.605z
		 M251.605,18.141v-2.313h-9.635v2.313H251.605z"/>
	<path fill="#FFFFFF" stroke="#FFFFFF" stroke-width="0.4" stroke-miterlimit="10" d="M261.518,15.364
		c1.18,1.713,1.77,3.301,1.77,4.763c0,0.843-0.237,1.496-0.712,1.957c-0.475,0.461-1.42,0.662-2.836,0.603l-0.425-1.067
		c0.336,0.026,0.675,0.04,1.018,0.04c0.744,0,1.245-0.117,1.502-0.351s0.386-0.674,0.386-1.319c0-1.449-0.609-2.909-1.828-4.378
		c0.421-1.126,0.955-2.754,1.601-4.882h-3.182v16.128h-1.028V9.702H263v1.028C262.736,11.836,262.242,13.381,261.518,15.364z
		 M273.298,17.716h-7.343v7.847c1.061-0.297,2.161-0.702,3.301-1.216l0.079,1.117c-1.338,0.56-2.734,1.038-4.19,1.433l-0.484-1.028
		c0.146-0.158,0.218-0.346,0.218-0.563V9.662h8.42V17.716z M272.19,13.082v-2.372h-6.235v2.372H272.19z M272.19,16.679v-2.569
		h-6.235v2.569H272.19z M274.859,26.096l-0.731,0.91c-2.919-1.838-4.826-4.355-5.722-7.55l0.988-0.425
		c0.236,0.863,0.573,1.713,1.008,2.549c1.226-0.817,2.26-1.7,3.103-2.648l0.811,0.682c-1.034,1.054-2.168,2-3.399,2.836
		C271.681,23.82,272.994,25.036,274.859,26.096z"/>
	<path fill="#FFFFFF" stroke="#FFFFFF" stroke-width="0.4" stroke-miterlimit="10" d="M284.109,9.573
		c-1.192,3.683-3.337,6.638-6.434,8.864l-0.811-0.81c2.972-2.016,5.033-4.823,6.187-8.42L284.109,9.573z M293.3,26.541l-0.949,0.543
		c-0.421-1.041-0.84-1.896-1.255-2.569c-3.821,0.988-7.619,1.647-11.394,1.977l-0.307-1.028c2.062-2.424,4.032-5.893,5.909-10.406
		l1.028,0.444c-1.707,4.052-3.492,7.313-5.356,9.784c2.608-0.185,5.804-0.758,9.586-1.72c-0.606-1.074-1.43-2.322-2.471-3.745
		l0.938-0.554C290.901,21.844,292.324,24.268,293.3,26.541z M294.812,17.469l-0.682,0.889c-2.425-1.581-4.361-4.183-5.811-7.807
		h-1.354V9.455h2.185C290.335,13.111,292.223,15.783,294.812,17.469z"/>
	<path fill="#FFFFFF" stroke="#FFFFFF" stroke-width="0.4" stroke-miterlimit="10" d="M314.003,25.385
		c0,0.527-0.147,0.908-0.44,1.142s-1.089,0.351-2.387,0.351c-0.56,0-1.278-0.026-2.154-0.079l-0.365-1.126
		c1.152,0.079,2.059,0.119,2.718,0.119c0.691,0,1.123-0.044,1.294-0.133c0.172-0.089,0.258-0.275,0.258-0.559V10.591h-15.585V9.553
		h16.662V25.385z M310.781,14.336h-12.828l0.021-1.018h12.808V14.336z M309.388,23.112h-10.14v-6.146h10.14V23.112z M308.29,22.064
		v-4.052h-7.925v4.052H308.29z"/>
</g>
<g display="none" enable-background="new    ">
	<path display="inline" fill="#FFFFFF" stroke="#FFFFFF" stroke-width="0.75" stroke-miterlimit="10" d="M129.663,27.591
		c-0.188,0.792-0.445,1.779-0.771,2.962l-0.502,1.727V49.28h-1.261V35.535c-0.718,1.485-1.334,2.599-1.848,3.341l-0.955-1.053
		c1.82-2.741,3.199-6.295,4.137-10.661L129.663,27.591z M146.003,29.096h-7.393c-0.123,0.4-0.314,0.841-0.576,1.322h5.594v6.17
		h2.203v3.084h-1.322v-1.958h-13.292v1.958h-1.224v-3.084h2.105v-6.17h4.553c0.212-0.358,0.416-0.799,0.612-1.322h-6.695v-1.15
		h15.435V29.096z M146.261,48.448l-0.649,1.004c-2.831-0.515-5.182-1.135-7.05-1.86c-2.007,0.93-4.647,1.509-7.919,1.737
		l-0.624-1.187c2.979-0.106,5.349-0.49,7.111-1.151c-1.118-0.546-2.211-1.199-3.28-1.958c-1.191,0.653-2.203,1.114-3.036,1.383
		l-0.722-1.028c1.298-0.432,2.232-0.815,2.803-1.15c-0.327-0.318-0.559-0.551-0.698-0.697l0.857-0.734
		c0.318,0.359,0.624,0.661,0.918,0.905c0.514-0.285,1.175-0.836,1.983-1.652c-0.987-0.122-1.481-0.641-1.481-1.555v-1.885h1.31
		v1.909c0,0.221,0.087,0.37,0.263,0.447c0.175,0.077,0.851,0.116,2.026,0.116c1.322,0,2.097-0.098,2.326-0.294
		c0.228-0.195,0.342-0.637,0.342-1.321l1.127,0.526c-0.122,1.102-0.468,1.746-1.034,1.934c-0.567,0.188-1.708,0.27-3.421,0.245
		c-0.473,0.555-0.775,0.889-0.906,1.003h6.646v1.028c-0.734,0.931-1.771,1.841-3.109,2.729
		C141.919,47.579,143.991,48.081,146.261,48.448z M133.8,39.219c-0.767,1.534-1.55,2.697-2.35,3.489l-1.004-0.747
		c0.922-0.881,1.697-1.954,2.326-3.219L133.8,39.219z M142.344,32.475v-1.053h-8.997v1.053H142.344z M142.344,34.531V33.43h-8.997
		v1.102H142.344z M142.344,36.588v-1.127h-8.997v1.127H142.344z M141.499,44.213h-6.39l-0.184,0.196
		c1.118,0.84,2.338,1.501,3.66,1.982C139.5,45.935,140.471,45.209,141.499,44.213z M139.565,39.402l-0.624,0.918
		c-0.702-0.489-1.428-0.897-2.179-1.224l0.649-0.906C138.153,38.484,138.871,38.889,139.565,39.402z M145.563,42.059l-1.053,0.624
		c-0.587-1.24-1.358-2.427-2.313-3.562l0.955-0.648C144.245,39.762,145.049,40.957,145.563,42.059z"/>
	<path display="inline" fill="#FFFFFF" stroke="#FFFFFF" stroke-width="0.75" stroke-miterlimit="10" d="M160.919,49.17h-1.297
		v-1.774h-5.545v1.774h-1.347V38.19h8.188V49.17z M159.598,46.123v-6.622h-5.521v6.622H159.598z M170.124,35.339h-14.762v-7.442
		h14.762V35.339z M168.814,34.091V29.17h-12.13v4.921H168.814z M172.132,49.17h-1.335v-1.774h-5.581v1.774h-1.334V38.19h8.25V49.17z
		 M170.797,46.123v-6.622h-5.581v6.622H170.797z"/>
	<path display="inline" fill="#FFFFFF" stroke="#FFFFFF" stroke-width="0.75" stroke-miterlimit="10" d="M200.304,39.329h-8.115
		v1.347h6.107v8.52h-1.248v-0.894h-15.142v0.894h-1.285v-8.52h6.427c0.049-0.653,0.073-1.102,0.073-1.347h-8.568V38.19h21.751
		V39.329z M190.353,28.791h-6.39l0.673,0.428c-0.13,0.253-0.265,0.478-0.403,0.674h5.141v1.027h-2.754
		c-0.024,0.286-0.082,0.649-0.171,1.09h3.402v1.077h-3.158c0.808,0.457,1.701,1.073,2.681,1.848l-0.722,0.833
		c-0.89-0.792-1.886-1.478-2.987-2.057c-0.693,0.824-1.795,1.478-3.305,1.958l-0.673-0.954c1.33-0.335,2.338-0.877,3.023-1.628
		h-3.023V32.01h3.525c0.154-0.351,0.232-0.714,0.232-1.09h-2.179c-0.237,0.204-0.522,0.416-0.857,0.637l-0.93-0.71
		c0.889-0.596,1.574-1.28,2.056-2.056h-2.681v6.694c0,0.155,0.063,0.294,0.19,0.417c0.126,0.122,0.263,0.184,0.41,0.184h7.895v1.077
		h-7.87c-1.216,0-1.824-0.625-1.824-1.873v-6.499h-0.759v-1.127h11.457V28.791z M197.048,47.199v-2.938h-4.26
		c-0.775,0-1.279-0.171-1.512-0.514s-0.349-0.783-0.349-1.322v-0.624h-2.926c-0.563,1.615-2.203,2.713-4.92,3.293l-0.625-1.163
		c2.13-0.294,3.55-1.004,4.26-2.13h-4.811v5.397H197.048z M194.588,46.196h-10.307v-1.077h10.307V46.196z M190.928,40.676v-1.347
		h-2.559c0,0.408-0.032,0.857-0.098,1.347H190.928z M200.107,31.03h-2.288c-0.898,0-1.347-0.485-1.347-1.456V28.84h-3.513
		c-0.18,1.027-0.747,1.917-1.702,2.668l-1.003-0.734c1.102-0.579,1.611-1.592,1.529-3.035h5.888v1.885
		c0,0.221,0.118,0.33,0.355,0.33h2.08V31.03z M199.948,36.771l-0.673,0.918c-0.873-0.571-2.007-1.195-3.402-1.873
		c-1.608,0.865-3.297,1.456-5.067,1.774l-0.551-1.028c1.428-0.269,2.848-0.726,4.259-1.37c-0.864-0.449-1.966-0.91-3.305-1.384
		l0.502-0.673h-1.077V32.01h8.495v1.126c-0.678,0.816-1.396,1.473-2.154,1.971C197.636,35.449,198.627,36.004,199.948,36.771z
		 M197.048,43.16v-1.358h-4.859v0.906c0,0.302,0.146,0.452,0.44,0.452H197.048z M197.427,33.136h-4.969
		c1.934,0.808,3.027,1.272,3.28,1.396C196.399,34.099,196.962,33.634,197.427,33.136z"/>
	<path display="inline" fill="#FFFFFF" stroke="#FFFFFF" stroke-width="0.75" stroke-miterlimit="10" d="M227.18,42.132h-2.057
		v3.207h-8.274v2.057c0,0.661-0.206,1.114-0.618,1.358c-0.412,0.245-1.3,0.367-2.662,0.367c-0.449,0-0.91-0.017-1.383-0.049
		l-0.417-1.199l3.158-0.024c0.433,0,0.649-0.225,0.649-0.674v-1.836h-8.899v-1.126h8.899v-2.081h-10.258v-1.199h10.258v-1.86h-8.899
		v-1.199h8.899v-1.861h-8.104v-4.234h8.104v-1.677h-10.074v-1.151h10.074v-1.762h1.272v1.762h10.024v1.151h-10.024v1.677h8.128
		v4.234h-8.128v1.861h8.274v3.06h2.057V42.132z M215.576,34.813v-1.86h-6.77v1.86H215.576z M223.642,34.813v-1.86h-6.793v1.86
		H223.642z M223.801,40.933v-1.86h-6.952v1.86H223.801z M223.801,44.213v-2.081h-6.952v2.081H223.801z"/>
	<path display="inline" fill="#FFFFFF" stroke="#FFFFFF" stroke-width="0.75" stroke-miterlimit="10" d="M239.709,38.068
		l-0.894,1.004c-0.824-1.322-1.534-2.31-2.13-2.962v13.035h-1.261V36.563c-0.506,1.771-1.322,3.685-2.448,5.741l-0.931-0.955
		c1.461-2.415,2.547-5.279,3.257-8.593h-2.963v-1.15h3.085v-4.283h1.261v4.283h2.154v1.15h-2.154v1.604
		C237.591,35.241,238.599,36.478,239.709,38.068z M246.331,46.942l-0.82,0.906c-1.42-1.313-2.367-2.109-2.84-2.387
		c-1.11,1.729-2.187,3.019-3.231,3.867l-0.931-0.905c1.828-1.534,3.281-3.599,4.358-6.193l1.162,0.478l-0.808,1.701
		C244.274,45.103,245.311,45.947,246.331,46.942z M254.409,33.258l-0.71,1.102c-3.183-1.623-5.513-3.354-6.989-5.189
		c-2.171,2.301-4.459,4.072-6.866,5.313l-0.955-1.004c3.443-1.771,6.018-3.868,7.724-6.291l1.224,0.452
		c-0.057,0.131-0.191,0.323-0.403,0.575C248.844,30.002,251.17,31.684,254.409,33.258z M245.682,41.704h-5.189v-5.961h5.189V41.704z
		 M244.421,40.504v-3.562h-2.681v3.562H244.421z M250.162,33.932h-6.989v-1.225h6.989V33.932z M254.104,48.228l-0.833,0.869
		c-1.297-1.387-2.488-2.473-3.574-3.256c-0.946,1.551-1.791,2.669-2.533,3.354l-1.053-0.723c1.469-1.411,2.722-3.501,3.758-6.267
		l1.15,0.403c-0.261,0.816-0.547,1.543-0.856,2.179C251.5,45.711,252.813,46.857,254.104,48.228z M252.72,41.704h-5.165v-5.961
		h5.165V41.704z M251.496,40.504v-3.562h-2.705v3.562H251.496z"/>
	<path display="inline" fill="#FFFFFF" stroke="#FFFFFF" stroke-width="0.75" stroke-miterlimit="10" d="M261.051,41.459
		c-0.081,2.261-0.31,4.288-0.686,6.083l-1.175-0.269c0.399-1.6,0.661-3.574,0.783-5.925L261.051,41.459z M268.297,29.146h-2.84
		v2.411h2.362v1.175h-2.362v2.351h2.362v1.236h-2.362v2.484h2.362c0.033,1.396,0.05,2.525,0.05,3.391c0,1.771-0.056,3.19-0.166,4.26
		c-0.109,1.069-0.287,1.761-0.532,2.074c-0.245,0.314-0.559,0.519-0.942,0.612s-1.073,0.141-2.068,0.141l-0.38-1.285
		c0.311,0.017,0.813,0.024,1.506,0.024c0.514,0,0.877-0.229,1.089-0.686c0.213-0.457,0.318-2.085,0.318-4.884
		c0-0.905-0.021-1.713-0.061-2.423h-6.157V27.922h7.821V29.146z M262.776,47.225l-1.027,0.146c0.032-0.783,0.049-1.546,0.049-2.289
		c0-1.306-0.049-2.473-0.147-3.501l0.955-0.146c0.139,2.342,0.208,3.827,0.208,4.455C262.813,46.355,262.802,46.8,262.776,47.225z
		 M264.185,31.532v-2.387h-2.436v2.387H264.185z M264.185,35.082v-2.326h-2.436v2.326H264.185z M264.185,38.803v-2.484h-2.436v2.484
		H264.185z M264.711,46.221l-1.004,0.146c-0.057-1.86-0.232-3.488-0.526-4.884l0.931-0.208
		C264.389,42.63,264.589,44.278,264.711,46.221z M266.266,44.887l-0.857,0.208c-0.098-0.938-0.347-2.244-0.746-3.917l0.795-0.196
		C265.653,41.537,265.923,42.838,266.266,44.887z M281.174,33.307l-0.648,1.077c-2.448-1.305-4.472-3.076-6.071-5.312
		c-1.33,1.812-3.228,3.55-5.691,5.214l-0.771-1.053c2.831-1.836,4.888-3.859,6.169-6.071l1.273,0.404
		c-0.05,0.123-0.123,0.273-0.221,0.453C276.73,30.198,278.718,31.961,281.174,33.307z M274.209,46.869l-0.905,0.931
		c-0.367-0.563-0.983-1.273-1.849-2.13c-0.759,1.437-1.547,2.619-2.362,3.55l-1.028-0.698c1.534-1.853,2.636-3.9,3.305-6.145
		l1.188,0.404c-0.245,0.718-0.453,1.285-0.624,1.701C272.716,45.176,273.475,45.972,274.209,46.869z M273.879,41.777h-4.786v-5.961
		h4.786V41.777z M272.679,40.603v-3.611h-2.411v3.611H272.679z M277.747,34.054h-6.696v-1.199h6.696V34.054z M281.149,48.326
		l-0.931,0.869c-1.003-1.314-2.02-2.375-3.048-3.183c-0.669,1.232-1.432,2.346-2.288,3.341l-1.028-0.783
		c1.46-1.574,2.623-3.672,3.488-6.291l1.224,0.429c-0.236,0.693-0.526,1.411-0.869,2.154
		C279.199,46.118,280.35,47.273,281.149,48.326z M280.023,41.777h-4.835v-5.961h4.835V41.777z M278.849,40.603v-3.611h-2.485v3.611
		H278.849z"/>
	<path display="inline" fill="#FFFFFF" stroke="#FFFFFF" stroke-width="0.75" stroke-miterlimit="10" d="M296.567,28.424
		c-2.383,1.003-4.863,1.644-7.442,1.921v2.986h6.562v7.296h-6.586c-0.22,3.599-0.881,6.397-1.982,8.396l-1.102-0.771
		c1.216-2.374,1.823-5.193,1.823-8.458V29.316c3.395-0.375,6.112-1.053,8.152-2.031L296.567,28.424z M294.413,39.354v-4.798h-5.288
		v4.798H294.413z M308.073,36.44h-2.853v12.84h-1.235V36.44h-4.505c0.008,3.436-0.275,5.981-0.851,7.638
		c-0.575,1.657-1.463,3.391-2.662,5.202l-1.053-0.856c1.42-2.008,2.321-3.805,2.705-5.392s0.575-3.69,0.575-6.311v-7.649
		c3.402-0.164,6.369-0.76,8.898-1.787l0.686,1.139c-2.228,0.914-4.994,1.513-8.299,1.799v4.994h8.593V36.44z"/>
</g>
<g enable-background="new    ">
	<path fill="#FFFFFF" d="M118.59,46.079c0,0.047-0.011,0.087-0.035,0.122c-0.023,0.034-0.063,0.062-0.121,0.082
		s-0.134,0.037-0.229,0.052s-0.215,0.021-0.36,0.021c-0.139,0-0.257-0.007-0.355-0.021c-0.099-0.015-0.176-0.031-0.234-0.052
		c-0.058-0.021-0.099-0.048-0.122-0.082c-0.023-0.035-0.035-0.075-0.035-0.122V35.317c0-0.046,0.013-0.086,0.039-0.121
		c0.026-0.034,0.069-0.062,0.13-0.082s0.139-0.038,0.234-0.052c0.096-0.015,0.209-0.022,0.342-0.022c0.145,0,0.265,0.008,0.36,0.022
		c0.095,0.014,0.172,0.031,0.229,0.052s0.098,0.048,0.121,0.082c0.023,0.035,0.035,0.075,0.035,0.121V46.079z"/>
	<path fill="#FFFFFF" d="M128.659,42.103c0,0.635-0.084,1.22-0.251,1.754c-0.167,0.535-0.417,0.995-0.75,1.383
		c-0.332,0.387-0.748,0.688-1.248,0.905s-1.079,0.325-1.737,0.325c-0.641,0-1.2-0.096-1.677-0.286s-0.874-0.468-1.191-0.832
		c-0.317-0.364-0.554-0.806-0.71-1.326c-0.156-0.52-0.234-1.108-0.234-1.768c0-0.635,0.083-1.22,0.247-1.754
		s0.413-0.995,0.745-1.383c0.332-0.387,0.747-0.687,1.243-0.9c0.497-0.214,1.078-0.321,1.742-0.321c0.641,0,1.2,0.096,1.677,0.286
		s0.874,0.468,1.191,0.832s0.556,0.806,0.715,1.326C128.58,40.863,128.659,41.449,128.659,42.103z M127.178,42.197
		c0-0.421-0.04-0.82-0.118-1.195c-0.079-0.376-0.208-0.705-0.389-0.988c-0.181-0.282-0.426-0.507-0.734-0.671
		c-0.309-0.165-0.694-0.247-1.154-0.247c-0.425,0-0.791,0.075-1.097,0.226c-0.306,0.149-0.558,0.362-0.756,0.637
		s-0.345,0.599-0.441,0.975c-0.096,0.375-0.144,0.785-0.144,1.23c0,0.428,0.039,0.829,0.118,1.204
		c0.079,0.376,0.21,0.703,0.394,0.983s0.43,0.503,0.739,0.667c0.309,0.165,0.693,0.247,1.154,0.247c0.419,0,0.784-0.075,1.093-0.225
		c0.309-0.15,0.563-0.361,0.761-0.633c0.198-0.271,0.344-0.595,0.437-0.971C127.131,43.062,127.178,42.648,127.178,42.197z"/>
	<path fill="#FFFFFF" d="M137.445,46.088c0,0.047-0.01,0.086-0.03,0.117c-0.021,0.032-0.057,0.06-0.108,0.082
		c-0.052,0.023-0.12,0.041-0.204,0.052c-0.084,0.012-0.187,0.018-0.308,0.018c-0.133,0-0.241-0.006-0.325-0.018
		c-0.083-0.011-0.15-0.028-0.199-0.052c-0.049-0.022-0.082-0.05-0.1-0.082c-0.017-0.031-0.026-0.07-0.026-0.117v-1.031
		c-0.445,0.491-0.884,0.85-1.317,1.075c-0.434,0.225-0.873,0.338-1.317,0.338c-0.52,0-0.957-0.087-1.313-0.261
		c-0.355-0.173-0.643-0.408-0.862-0.706c-0.219-0.297-0.377-0.644-0.472-1.039c-0.095-0.396-0.143-0.877-0.143-1.443v-4.73
		c0-0.047,0.01-0.085,0.03-0.117c0.021-0.032,0.06-0.061,0.117-0.087c0.058-0.025,0.133-0.043,0.225-0.052s0.208-0.013,0.347-0.013
		s0.254,0.004,0.347,0.013s0.166,0.026,0.221,0.052c0.055,0.026,0.094,0.055,0.117,0.087s0.035,0.07,0.035,0.117v4.54
		c0,0.456,0.033,0.822,0.1,1.096c0.066,0.274,0.167,0.509,0.303,0.702s0.308,0.344,0.516,0.451c0.208,0.106,0.451,0.16,0.728,0.16
		c0.358,0,0.715-0.127,1.07-0.382c0.355-0.254,0.732-0.626,1.131-1.117v-5.45c0-0.047,0.01-0.085,0.03-0.117
		c0.021-0.032,0.059-0.061,0.117-0.087c0.058-0.025,0.131-0.043,0.221-0.052c0.09-0.009,0.207-0.013,0.351-0.013
		c0.139,0,0.254,0.004,0.347,0.013c0.092,0.009,0.165,0.026,0.216,0.052c0.052,0.026,0.091,0.055,0.117,0.087
		s0.039,0.07,0.039,0.117V46.088z"/>
	<path fill="#FFFFFF" d="M151.153,38.376c0,0.561-0.092,1.066-0.277,1.517c-0.185,0.451-0.449,0.835-0.793,1.152
		c-0.344,0.318-0.765,0.563-1.265,0.736c-0.5,0.174-1.096,0.261-1.789,0.261h-1.274v4.037c0,0.047-0.013,0.087-0.039,0.122
		c-0.026,0.034-0.067,0.062-0.122,0.082s-0.13,0.037-0.225,0.052s-0.215,0.021-0.36,0.021s-0.264-0.007-0.359-0.021
		s-0.172-0.031-0.229-0.052c-0.058-0.021-0.099-0.048-0.122-0.082c-0.023-0.035-0.035-0.075-0.035-0.122V35.733
		c0-0.23,0.061-0.396,0.182-0.493c0.121-0.099,0.257-0.147,0.407-0.147h2.4c0.243,0,0.475,0.01,0.698,0.03
		c0.222,0.021,0.485,0.063,0.789,0.13s0.612,0.19,0.927,0.372c0.314,0.183,0.582,0.406,0.801,0.672
		c0.219,0.266,0.388,0.573,0.507,0.923C151.093,37.569,151.153,37.955,151.153,38.376z M149.584,38.498
		c0-0.457-0.085-0.838-0.256-1.145c-0.17-0.306-0.381-0.534-0.632-0.684c-0.251-0.15-0.511-0.246-0.78-0.286
		c-0.269-0.041-0.53-0.061-0.784-0.061h-1.378v4.497h1.343c0.451,0,0.825-0.059,1.122-0.174s0.547-0.275,0.75-0.48
		s0.355-0.451,0.459-0.737C149.532,39.144,149.584,38.833,149.584,38.498z"/>
	<path fill="#FFFFFF" d="M154.861,35.655c0,0.336-0.063,0.563-0.19,0.685c-0.127,0.122-0.361,0.183-0.702,0.183
		c-0.335,0-0.564-0.06-0.688-0.178c-0.125-0.118-0.187-0.343-0.187-0.672c0-0.335,0.063-0.563,0.191-0.685
		c0.127-0.121,0.361-0.182,0.702-0.182c0.335,0,0.564,0.06,0.689,0.178C154.799,35.103,154.861,35.326,154.861,35.655z
		 M154.697,46.088c0,0.047-0.012,0.086-0.035,0.117c-0.023,0.032-0.061,0.06-0.113,0.082c-0.052,0.023-0.124,0.041-0.216,0.052
		c-0.093,0.012-0.211,0.018-0.355,0.018c-0.139,0-0.254-0.006-0.347-0.018c-0.092-0.011-0.166-0.028-0.221-0.052
		c-0.055-0.022-0.093-0.05-0.113-0.082c-0.02-0.031-0.03-0.07-0.03-0.117V38.29c0-0.041,0.01-0.078,0.03-0.113
		c0.02-0.034,0.058-0.063,0.113-0.086c0.055-0.023,0.128-0.041,0.221-0.053c0.092-0.011,0.208-0.017,0.347-0.017
		c0.145,0,0.263,0.006,0.355,0.017c0.092,0.012,0.165,0.029,0.216,0.053c0.052,0.022,0.09,0.052,0.113,0.086
		c0.023,0.035,0.035,0.072,0.035,0.113V46.088z"/>
	<path fill="#FFFFFF" d="M158.934,35.655c0,0.336-0.063,0.563-0.19,0.685c-0.127,0.122-0.361,0.183-0.702,0.183
		c-0.335,0-0.564-0.06-0.688-0.178c-0.125-0.118-0.187-0.343-0.187-0.672c0-0.335,0.063-0.563,0.191-0.685
		c0.127-0.121,0.361-0.182,0.702-0.182c0.335,0,0.564,0.06,0.689,0.178C158.872,35.103,158.934,35.326,158.934,35.655z
		 M158.77,46.088c0,0.047-0.012,0.086-0.035,0.117c-0.022,0.032-0.061,0.06-0.112,0.082c-0.052,0.023-0.124,0.041-0.217,0.052
		c-0.093,0.012-0.211,0.018-0.355,0.018c-0.139,0-0.254-0.006-0.347-0.018c-0.092-0.011-0.166-0.028-0.221-0.052
		c-0.055-0.022-0.093-0.05-0.113-0.082c-0.02-0.031-0.03-0.07-0.03-0.117V38.29c0-0.041,0.01-0.078,0.03-0.113
		c0.02-0.034,0.058-0.063,0.113-0.086c0.055-0.023,0.128-0.041,0.221-0.053c0.092-0.011,0.208-0.017,0.347-0.017
		c0.145,0,0.263,0.006,0.355,0.017c0.093,0.012,0.165,0.029,0.217,0.053c0.052,0.022,0.09,0.052,0.112,0.086
		c0.023,0.035,0.035,0.072,0.035,0.113V46.088z"/>
	<path fill="#FFFFFF" d="M168.127,46.088c0,0.047-0.012,0.086-0.035,0.117c-0.022,0.032-0.061,0.06-0.112,0.082
		c-0.052,0.023-0.124,0.041-0.217,0.052c-0.092,0.012-0.208,0.018-0.347,0.018c-0.145,0-0.263-0.006-0.354-0.018
		c-0.093-0.011-0.165-0.028-0.217-0.052c-0.052-0.022-0.09-0.05-0.113-0.082c-0.022-0.031-0.034-0.07-0.034-0.117v-4.566
		c0-0.444-0.035-0.803-0.104-1.074s-0.17-0.506-0.303-0.702s-0.305-0.347-0.516-0.45c-0.211-0.104-0.455-0.156-0.732-0.156
		c-0.358,0-0.716,0.127-1.074,0.382c-0.358,0.254-0.733,0.627-1.126,1.117v5.45c0,0.047-0.012,0.086-0.035,0.117
		c-0.023,0.032-0.061,0.06-0.112,0.082c-0.053,0.023-0.125,0.041-0.217,0.052c-0.093,0.012-0.211,0.018-0.355,0.018
		c-0.139,0-0.254-0.006-0.347-0.018c-0.093-0.011-0.166-0.028-0.221-0.052c-0.055-0.022-0.093-0.05-0.112-0.082
		c-0.021-0.031-0.03-0.07-0.03-0.117V38.29c0-0.047,0.008-0.085,0.025-0.117s0.052-0.061,0.104-0.087
		c0.052-0.025,0.118-0.043,0.199-0.052c0.08-0.009,0.188-0.013,0.32-0.013c0.127,0,0.232,0.004,0.316,0.013s0.148,0.026,0.194,0.052
		c0.047,0.026,0.08,0.055,0.101,0.087c0.02,0.032,0.03,0.07,0.03,0.117v1.031c0.438-0.491,0.876-0.851,1.313-1.079
		c0.436-0.229,0.876-0.343,1.321-0.343c0.52,0,0.957,0.089,1.313,0.265c0.355,0.177,0.643,0.412,0.862,0.706
		c0.22,0.295,0.377,0.64,0.473,1.035c0.095,0.396,0.143,0.871,0.143,1.426V46.088z"/>
	<path fill="#FFFFFF" d="M182.303,43.09c0,0.353-0.045,0.678-0.135,0.975c-0.09,0.298-0.215,0.565-0.377,0.802
		c-0.162,0.237-0.356,0.445-0.585,0.624s-0.485,0.329-0.771,0.45c-0.285,0.122-0.592,0.213-0.918,0.273s-0.7,0.091-1.122,0.091
		h-2.929c-0.133,0-0.259-0.045-0.377-0.135c-0.118-0.089-0.178-0.246-0.178-0.472v-9.999c0-0.226,0.06-0.383,0.178-0.473
		c0.118-0.089,0.244-0.134,0.377-0.134h2.548c0.67,0,1.219,0.063,1.646,0.19c0.428,0.127,0.784,0.312,1.07,0.555
		c0.286,0.242,0.501,0.54,0.646,0.893c0.145,0.352,0.217,0.751,0.217,1.195c0,0.266-0.032,0.52-0.096,0.763
		c-0.063,0.242-0.157,0.467-0.281,0.671c-0.124,0.206-0.28,0.389-0.468,0.551s-0.403,0.295-0.646,0.398
		c0.306,0.058,0.592,0.163,0.857,0.316s0.498,0.348,0.698,0.585c0.199,0.236,0.356,0.514,0.472,0.832
		C182.244,42.359,182.303,42.709,182.303,43.09z M180.059,38.073c0-0.271-0.038-0.517-0.113-0.736
		c-0.074-0.22-0.192-0.406-0.354-0.56c-0.162-0.152-0.372-0.27-0.632-0.351c-0.259-0.081-0.602-0.121-1.028-0.121h-1.539v3.631
		h1.694c0.387,0,0.697-0.051,0.934-0.152c0.236-0.101,0.433-0.236,0.588-0.407c0.156-0.17,0.27-0.369,0.342-0.598
		S180.059,38.315,180.059,38.073z M180.734,43.177c0-0.335-0.054-0.63-0.16-0.884c-0.107-0.254-0.263-0.468-0.467-0.642
		c-0.205-0.173-0.462-0.305-0.771-0.394c-0.308-0.09-0.695-0.135-1.162-0.135h-1.782v3.951h2.162c0.34,0,0.637-0.04,0.891-0.121
		s0.478-0.201,0.67-0.359c0.193-0.159,0.345-0.357,0.454-0.594C180.679,43.763,180.734,43.488,180.734,43.177z"/>
	<path fill="#FFFFFF" d="M185.994,35.655c0,0.336-0.063,0.563-0.19,0.685c-0.127,0.122-0.361,0.183-0.702,0.183
		c-0.335,0-0.564-0.06-0.688-0.178s-0.187-0.343-0.187-0.672c0-0.335,0.063-0.563,0.19-0.685s0.361-0.182,0.702-0.182
		c0.335,0,0.564,0.06,0.688,0.178S185.994,35.326,185.994,35.655z M185.83,46.088c0,0.047-0.012,0.086-0.035,0.117
		c-0.023,0.032-0.061,0.06-0.112,0.082c-0.053,0.023-0.125,0.041-0.217,0.052c-0.093,0.012-0.211,0.018-0.355,0.018
		c-0.139,0-0.254-0.006-0.347-0.018c-0.093-0.011-0.166-0.028-0.221-0.052c-0.055-0.022-0.093-0.05-0.112-0.082
		c-0.021-0.031-0.03-0.07-0.03-0.117V38.29c0-0.041,0.01-0.078,0.03-0.113c0.02-0.034,0.058-0.063,0.112-0.086
		c0.055-0.023,0.128-0.041,0.221-0.053c0.093-0.011,0.208-0.017,0.347-0.017c0.145,0,0.263,0.006,0.355,0.017
		c0.092,0.012,0.164,0.029,0.217,0.053c0.052,0.022,0.089,0.052,0.112,0.086c0.023,0.035,0.035,0.072,0.035,0.113V46.088z"/>
	<path fill="#FFFFFF" d="M195.725,42.103c0,0.635-0.084,1.22-0.251,1.754c-0.168,0.535-0.418,0.995-0.75,1.383
		c-0.332,0.387-0.748,0.688-1.247,0.905c-0.5,0.217-1.079,0.325-1.737,0.325c-0.642,0-1.2-0.096-1.677-0.286
		s-0.874-0.468-1.191-0.832c-0.318-0.364-0.555-0.806-0.711-1.326c-0.156-0.52-0.233-1.108-0.233-1.768
		c0-0.635,0.082-1.22,0.246-1.754c0.165-0.534,0.413-0.995,0.745-1.383c0.333-0.387,0.747-0.687,1.244-0.9
		c0.496-0.214,1.077-0.321,1.741-0.321c0.642,0,1.2,0.096,1.677,0.286s0.874,0.468,1.191,0.832s0.556,0.806,0.715,1.326
		C195.646,40.863,195.725,41.449,195.725,42.103z M194.243,42.197c0-0.421-0.04-0.82-0.118-1.195
		c-0.079-0.376-0.209-0.705-0.39-0.988c-0.181-0.282-0.425-0.507-0.734-0.671c-0.309-0.165-0.693-0.247-1.153-0.247
		c-0.426,0-0.792,0.075-1.098,0.226c-0.306,0.149-0.559,0.362-0.756,0.637c-0.198,0.274-0.346,0.599-0.442,0.975
		c-0.096,0.375-0.144,0.785-0.144,1.23c0,0.428,0.039,0.829,0.118,1.204c0.078,0.376,0.21,0.703,0.394,0.983s0.43,0.503,0.738,0.667
		c0.309,0.165,0.693,0.247,1.154,0.247c0.42,0,0.784-0.075,1.093-0.225c0.309-0.15,0.563-0.361,0.761-0.633s0.344-0.595,0.437-0.971
		C194.196,43.062,194.243,42.648,194.243,42.197z"/>
	<path fill="#FFFFFF" d="M209.397,46.088c0,0.047-0.012,0.086-0.035,0.117c-0.023,0.032-0.061,0.06-0.112,0.082
		c-0.052,0.023-0.124,0.041-0.217,0.052c-0.093,0.012-0.208,0.018-0.347,0.018c-0.145,0-0.263-0.006-0.355-0.018
		c-0.092-0.011-0.166-0.028-0.221-0.052c-0.055-0.022-0.094-0.05-0.117-0.082c-0.022-0.031-0.034-0.07-0.034-0.117v-4.739
		c0-0.329-0.029-0.63-0.087-0.901s-0.15-0.506-0.277-0.702s-0.289-0.347-0.485-0.45c-0.196-0.104-0.428-0.156-0.693-0.156
		c-0.329,0-0.659,0.127-0.992,0.382c-0.332,0.254-0.697,0.627-1.096,1.117v5.45c0,0.047-0.012,0.086-0.034,0.117
		c-0.023,0.032-0.063,0.06-0.117,0.082c-0.055,0.023-0.129,0.041-0.221,0.052c-0.093,0.012-0.208,0.018-0.347,0.018
		c-0.133,0-0.247-0.006-0.343-0.018c-0.095-0.011-0.17-0.028-0.226-0.052c-0.055-0.022-0.092-0.05-0.112-0.082
		c-0.021-0.031-0.03-0.07-0.03-0.117v-4.739c0-0.329-0.031-0.63-0.096-0.901c-0.063-0.271-0.158-0.506-0.285-0.702
		s-0.288-0.347-0.481-0.45c-0.193-0.104-0.423-0.156-0.688-0.156c-0.329,0-0.662,0.127-0.997,0.382
		c-0.335,0.254-0.698,0.627-1.091,1.117v5.45c0,0.047-0.012,0.086-0.035,0.117c-0.023,0.032-0.061,0.06-0.112,0.082
		c-0.053,0.023-0.125,0.041-0.217,0.052c-0.093,0.012-0.211,0.018-0.355,0.018c-0.139,0-0.254-0.006-0.347-0.018
		c-0.093-0.011-0.166-0.028-0.221-0.052c-0.055-0.022-0.093-0.05-0.112-0.082c-0.021-0.031-0.03-0.07-0.03-0.117V38.29
		c0-0.047,0.008-0.085,0.025-0.117s0.052-0.061,0.104-0.087c0.052-0.025,0.118-0.043,0.199-0.052c0.08-0.009,0.188-0.013,0.32-0.013
		c0.127,0,0.232,0.004,0.316,0.013s0.148,0.026,0.194,0.052c0.047,0.026,0.08,0.055,0.101,0.087c0.02,0.032,0.03,0.07,0.03,0.117
		v1.031c0.438-0.491,0.864-0.851,1.277-1.079s0.831-0.343,1.252-0.343c0.324,0,0.614,0.038,0.871,0.113s0.483,0.181,0.681,0.316
		c0.196,0.136,0.363,0.297,0.502,0.485c0.139,0.188,0.254,0.396,0.347,0.628c0.26-0.283,0.507-0.522,0.741-0.72
		c0.233-0.196,0.459-0.354,0.676-0.477c0.217-0.121,0.428-0.209,0.633-0.264c0.204-0.055,0.411-0.083,0.619-0.083
		c0.503,0,0.924,0.089,1.265,0.265c0.341,0.177,0.617,0.412,0.828,0.706c0.211,0.295,0.36,0.64,0.45,1.035
		c0.09,0.396,0.135,0.813,0.135,1.253V46.088z"/>
	<path fill="#FFFFFF" d="M218.66,41.851c0,0.226-0.057,0.386-0.17,0.481c-0.113,0.095-0.242,0.143-0.388,0.143h-5.136
		c0,0.434,0.044,0.823,0.131,1.17s0.232,0.645,0.436,0.893s0.467,0.439,0.792,0.572s0.723,0.199,1.193,0.199
		c0.371,0,0.702-0.03,0.992-0.092c0.29-0.061,0.541-0.128,0.753-0.203s0.387-0.143,0.522-0.204c0.137-0.061,0.24-0.091,0.31-0.091
		c0.041,0,0.077,0.011,0.108,0.03c0.032,0.021,0.057,0.051,0.074,0.092c0.018,0.04,0.03,0.097,0.039,0.169s0.014,0.16,0.014,0.264
		c0,0.075-0.003,0.141-0.009,0.195s-0.014,0.104-0.021,0.147c-0.009,0.043-0.023,0.082-0.044,0.116
		c-0.021,0.035-0.046,0.068-0.078,0.1c-0.031,0.032-0.125,0.084-0.281,0.156s-0.358,0.144-0.606,0.213s-0.536,0.131-0.862,0.186
		s-0.675,0.083-1.044,0.083c-0.642,0-1.203-0.09-1.686-0.269c-0.482-0.18-0.888-0.445-1.217-0.798
		c-0.33-0.352-0.578-0.794-0.746-1.325c-0.167-0.531-0.251-1.149-0.251-1.854c0-0.67,0.087-1.272,0.26-1.807
		c0.174-0.534,0.424-0.988,0.75-1.36c0.326-0.373,0.721-0.658,1.183-0.857c0.462-0.2,0.979-0.3,1.551-0.3
		c0.612,0,1.134,0.099,1.564,0.295c0.43,0.196,0.784,0.461,1.062,0.793s0.48,0.722,0.61,1.17c0.13,0.447,0.195,0.926,0.195,1.434
		V41.851z M217.222,41.427c0.018-0.751-0.15-1.341-0.501-1.768c-0.352-0.428-0.874-0.642-1.565-0.642
		c-0.354,0-0.665,0.066-0.933,0.199s-0.491,0.31-0.672,0.528c-0.18,0.22-0.319,0.476-0.418,0.768
		c-0.099,0.291-0.154,0.596-0.166,0.914H217.222z"/>
	<path fill="#FFFFFF" d="M227.515,46.088c0,0.047-0.01,0.087-0.03,0.121c-0.02,0.035-0.055,0.063-0.104,0.083
		c-0.049,0.02-0.114,0.036-0.195,0.047c-0.081,0.012-0.179,0.018-0.294,0.018c-0.122,0-0.223-0.006-0.304-0.018
		c-0.081-0.011-0.147-0.027-0.199-0.047c-0.052-0.021-0.09-0.048-0.112-0.083c-0.023-0.034-0.035-0.074-0.035-0.121v-1.031
		c-0.41,0.445-0.836,0.792-1.278,1.04c-0.441,0.248-0.926,0.373-1.451,0.373c-0.571,0-1.06-0.111-1.464-0.334
		s-0.732-0.522-0.983-0.901c-0.252-0.378-0.436-0.823-0.551-1.334c-0.115-0.512-0.173-1.05-0.173-1.616
		c0-0.67,0.072-1.275,0.217-1.815c0.144-0.54,0.357-1.001,0.641-1.382s0.634-0.675,1.053-0.88c0.419-0.204,0.902-0.308,1.451-0.308
		c0.457,0,0.874,0.1,1.253,0.3c0.378,0.199,0.752,0.492,1.122,0.879v-4.531c0-0.041,0.01-0.08,0.03-0.117
		c0.02-0.037,0.059-0.066,0.116-0.087c0.058-0.02,0.132-0.037,0.222-0.052c0.089-0.015,0.203-0.021,0.342-0.021
		c0.145,0,0.263,0.007,0.355,0.021c0.092,0.015,0.164,0.032,0.217,0.052c0.052,0.021,0.091,0.05,0.116,0.087
		c0.026,0.037,0.039,0.076,0.039,0.117V46.088z M226.077,40.604c-0.388-0.479-0.762-0.845-1.122-1.097
		c-0.361-0.251-0.738-0.377-1.131-0.377c-0.364,0-0.674,0.087-0.928,0.261c-0.254,0.173-0.461,0.401-0.619,0.684
		c-0.159,0.283-0.274,0.604-0.347,0.962c-0.072,0.358-0.108,0.723-0.108,1.092c0,0.394,0.03,0.777,0.091,1.152
		c0.061,0.376,0.166,0.71,0.316,1.001c0.15,0.292,0.35,0.526,0.598,0.702c0.249,0.176,0.561,0.265,0.937,0.265
		c0.19,0,0.373-0.026,0.55-0.078c0.176-0.053,0.356-0.139,0.541-0.261c0.186-0.121,0.379-0.278,0.581-0.472s0.416-0.432,0.642-0.715
		V40.604z"/>
	<path fill="#FFFFFF" d="M231.753,35.655c0,0.336-0.063,0.563-0.19,0.685c-0.127,0.122-0.361,0.183-0.702,0.183
		c-0.335,0-0.564-0.06-0.688-0.178s-0.187-0.343-0.187-0.672c0-0.335,0.063-0.563,0.19-0.685s0.361-0.182,0.702-0.182
		c0.335,0,0.564,0.06,0.688,0.178S231.753,35.326,231.753,35.655z M231.589,46.088c0,0.047-0.012,0.086-0.035,0.117
		c-0.023,0.032-0.061,0.06-0.112,0.082c-0.053,0.023-0.125,0.041-0.217,0.052c-0.093,0.012-0.211,0.018-0.355,0.018
		c-0.139,0-0.254-0.006-0.347-0.018c-0.093-0.011-0.166-0.028-0.221-0.052c-0.055-0.022-0.093-0.05-0.112-0.082
		c-0.021-0.031-0.03-0.07-0.03-0.117V38.29c0-0.041,0.01-0.078,0.03-0.113c0.02-0.034,0.058-0.063,0.112-0.086
		c0.055-0.023,0.128-0.041,0.221-0.053c0.093-0.011,0.208-0.017,0.347-0.017c0.145,0,0.263,0.006,0.355,0.017
		c0.092,0.012,0.164,0.029,0.217,0.053c0.052,0.022,0.089,0.052,0.112,0.086c0.023,0.035,0.035,0.072,0.035,0.113V46.088z"/>
	<path fill="#FFFFFF" d="M239.837,44.901c0,0.098-0.003,0.183-0.009,0.255s-0.016,0.134-0.03,0.183s-0.031,0.092-0.052,0.13
		c-0.021,0.037-0.066,0.092-0.139,0.164s-0.195,0.162-0.368,0.269c-0.173,0.107-0.368,0.203-0.585,0.286
		c-0.217,0.084-0.452,0.151-0.706,0.204c-0.254,0.052-0.518,0.078-0.788,0.078c-0.561,0-1.058-0.093-1.491-0.277
		c-0.433-0.186-0.796-0.455-1.087-0.811c-0.292-0.355-0.515-0.791-0.667-1.309c-0.153-0.517-0.229-1.113-0.229-1.789
		c0-0.769,0.094-1.428,0.281-1.979s0.444-1.004,0.771-1.356c0.326-0.353,0.71-0.613,1.152-0.784c0.441-0.17,0.92-0.256,1.434-0.256
		c0.248,0,0.489,0.023,0.724,0.069c0.234,0.047,0.449,0.107,0.646,0.183s0.371,0.161,0.524,0.26
		c0.152,0.098,0.264,0.182,0.333,0.251s0.117,0.124,0.144,0.165c0.025,0.04,0.048,0.088,0.064,0.143
		c0.018,0.055,0.029,0.117,0.035,0.187s0.009,0.156,0.009,0.26c0,0.226-0.026,0.383-0.078,0.473
		c-0.052,0.089-0.116,0.134-0.19,0.134c-0.087,0-0.187-0.048-0.299-0.143c-0.113-0.096-0.256-0.201-0.43-0.316
		c-0.173-0.115-0.383-0.221-0.628-0.316s-0.536-0.143-0.871-0.143c-0.688,0-1.214,0.264-1.581,0.792
		c-0.367,0.529-0.55,1.296-0.55,2.301c0,0.503,0.047,0.943,0.143,1.321c0.096,0.379,0.235,0.695,0.42,0.949
		c0.186,0.254,0.412,0.443,0.681,0.567s0.576,0.187,0.923,0.187c0.329,0,0.618-0.052,0.866-0.156
		c0.248-0.104,0.464-0.218,0.646-0.342c0.182-0.125,0.335-0.237,0.459-0.338c0.125-0.102,0.222-0.152,0.291-0.152
		c0.04,0,0.074,0.012,0.104,0.035c0.029,0.022,0.054,0.062,0.074,0.117c0.02,0.055,0.034,0.124,0.043,0.208
		C239.833,44.686,239.837,44.785,239.837,44.901z"/>
	<path fill="#FFFFFF" d="M247.462,46.097c0,0.069-0.022,0.121-0.069,0.156c-0.046,0.034-0.109,0.061-0.19,0.078
		c-0.081,0.017-0.199,0.025-0.355,0.025c-0.15,0-0.27-0.009-0.359-0.025c-0.09-0.018-0.154-0.044-0.195-0.078
		c-0.04-0.035-0.061-0.087-0.061-0.156v-0.779c-0.341,0.363-0.721,0.646-1.139,0.849c-0.419,0.202-0.862,0.304-1.33,0.304
		c-0.41,0-0.781-0.054-1.114-0.161c-0.332-0.106-0.615-0.261-0.849-0.463c-0.234-0.202-0.416-0.451-0.546-0.745
		c-0.13-0.295-0.195-0.63-0.195-1.006c0-0.438,0.09-0.819,0.269-1.144c0.18-0.323,0.437-0.592,0.771-0.806s0.745-0.374,1.23-0.48
		c0.485-0.107,1.031-0.161,1.638-0.161h1.074v-0.606c0-0.3-0.031-0.565-0.095-0.797c-0.064-0.23-0.167-0.423-0.308-0.576
		c-0.142-0.153-0.325-0.269-0.551-0.347s-0.503-0.117-0.832-0.117c-0.353,0-0.668,0.042-0.948,0.126s-0.526,0.177-0.736,0.277
		c-0.211,0.102-0.388,0.193-0.529,0.277s-0.247,0.126-0.316,0.126c-0.046,0-0.086-0.012-0.121-0.035
		c-0.034-0.023-0.064-0.058-0.091-0.104c-0.026-0.047-0.045-0.105-0.057-0.178c-0.011-0.072-0.017-0.152-0.017-0.238
		c0-0.145,0.01-0.259,0.03-0.343c0.02-0.083,0.069-0.163,0.147-0.238c0.077-0.075,0.212-0.163,0.402-0.264
		c0.19-0.102,0.41-0.194,0.658-0.277c0.249-0.084,0.521-0.153,0.815-0.208c0.294-0.055,0.592-0.083,0.892-0.083
		c0.561,0,1.037,0.064,1.43,0.191c0.394,0.127,0.711,0.313,0.953,0.559c0.243,0.245,0.419,0.55,0.529,0.914
		c0.109,0.364,0.164,0.788,0.164,1.273V46.097z M246.041,42.535h-1.222c-0.393,0-0.733,0.033-1.022,0.1s-0.528,0.165-0.719,0.295
		c-0.191,0.13-0.331,0.286-0.421,0.468c-0.089,0.183-0.134,0.392-0.134,0.628c0,0.405,0.128,0.727,0.386,0.967
		c0.257,0.239,0.616,0.359,1.078,0.359c0.376,0,0.724-0.096,1.044-0.286c0.321-0.19,0.657-0.482,1.01-0.875V42.535z"/>
	<path fill="#FFFFFF" d="M251.518,46.088c0,0.047-0.012,0.086-0.035,0.117c-0.023,0.032-0.061,0.06-0.112,0.082
		c-0.053,0.023-0.125,0.041-0.217,0.052c-0.093,0.012-0.211,0.018-0.355,0.018c-0.139,0-0.254-0.006-0.347-0.018
		c-0.093-0.011-0.166-0.028-0.221-0.052c-0.055-0.022-0.093-0.05-0.112-0.082c-0.021-0.031-0.03-0.07-0.03-0.117V34.512
		c0-0.046,0.01-0.087,0.03-0.121c0.02-0.035,0.058-0.063,0.112-0.087c0.055-0.022,0.128-0.04,0.221-0.052s0.208-0.018,0.347-0.018
		c0.145,0,0.263,0.006,0.355,0.018c0.092,0.012,0.164,0.029,0.217,0.052c0.052,0.023,0.089,0.052,0.112,0.087
		c0.023,0.034,0.035,0.075,0.035,0.121V46.088z"/>
	<path fill="#FFFFFF" d="M265.822,44.719c0,0.093-0.003,0.174-0.009,0.243s-0.016,0.13-0.03,0.182s-0.033,0.099-0.056,0.139
		c-0.023,0.04-0.064,0.09-0.122,0.147s-0.179,0.146-0.363,0.264c-0.186,0.119-0.415,0.234-0.689,0.347
		c-0.274,0.113-0.589,0.208-0.944,0.286s-0.743,0.117-1.165,0.117c-0.729,0-1.385-0.121-1.972-0.364
		c-0.586-0.242-1.086-0.601-1.499-1.074s-0.73-1.059-0.953-1.755c-0.223-0.695-0.333-1.497-0.333-2.404
		c0-0.93,0.119-1.759,0.359-2.486c0.239-0.729,0.576-1.345,1.01-1.851c0.433-0.505,0.951-0.891,1.555-1.156s1.272-0.398,2.006-0.398
		c0.323,0,0.639,0.03,0.944,0.091c0.307,0.061,0.59,0.137,0.85,0.229s0.491,0.199,0.693,0.32c0.202,0.122,0.342,0.222,0.42,0.299
		c0.078,0.078,0.129,0.138,0.151,0.178c0.023,0.041,0.042,0.089,0.057,0.144s0.026,0.12,0.034,0.194
		c0.009,0.075,0.014,0.165,0.014,0.269c0,0.116-0.006,0.214-0.018,0.295s-0.029,0.148-0.053,0.204
		c-0.022,0.055-0.051,0.095-0.082,0.121c-0.032,0.025-0.071,0.039-0.118,0.039c-0.081,0-0.194-0.057-0.34-0.169
		c-0.145-0.113-0.332-0.237-0.562-0.373s-0.508-0.26-0.836-0.372c-0.328-0.113-0.722-0.169-1.181-0.169
		c-0.5,0-0.954,0.1-1.363,0.299s-0.76,0.492-1.05,0.879c-0.29,0.388-0.516,0.859-0.675,1.417c-0.16,0.558-0.24,1.194-0.24,1.91
		c0,0.711,0.077,1.339,0.231,1.885c0.153,0.546,0.374,1.003,0.662,1.369c0.287,0.367,0.64,0.645,1.059,0.832
		c0.418,0.188,0.891,0.281,1.42,0.281c0.446,0,0.837-0.055,1.171-0.164c0.334-0.11,0.618-0.232,0.854-0.368s0.429-0.259,0.58-0.368
		c0.15-0.11,0.27-0.165,0.356-0.165c0.041,0,0.076,0.009,0.104,0.026c0.029,0.017,0.053,0.05,0.07,0.1
		c0.017,0.049,0.03,0.116,0.039,0.203S265.822,44.586,265.822,44.719z"/>
	<path fill="#FFFFFF" d="M274.886,42.103c0,0.635-0.084,1.22-0.251,1.754c-0.168,0.535-0.418,0.995-0.75,1.383
		c-0.332,0.387-0.748,0.688-1.247,0.905c-0.5,0.217-1.079,0.325-1.737,0.325c-0.642,0-1.2-0.096-1.677-0.286
		s-0.874-0.468-1.191-0.832c-0.318-0.364-0.555-0.806-0.711-1.326c-0.156-0.52-0.233-1.108-0.233-1.768
		c0-0.635,0.082-1.22,0.246-1.754c0.165-0.534,0.413-0.995,0.745-1.383c0.333-0.387,0.747-0.687,1.244-0.9
		c0.496-0.214,1.077-0.321,1.741-0.321c0.642,0,1.2,0.096,1.677,0.286s0.874,0.468,1.191,0.832s0.556,0.806,0.715,1.326
		C274.807,40.863,274.886,41.449,274.886,42.103z M273.404,42.197c0-0.421-0.04-0.82-0.118-1.195
		c-0.079-0.376-0.209-0.705-0.39-0.988c-0.181-0.282-0.425-0.507-0.734-0.671c-0.309-0.165-0.693-0.247-1.153-0.247
		c-0.426,0-0.792,0.075-1.098,0.226c-0.306,0.149-0.559,0.362-0.756,0.637c-0.198,0.274-0.346,0.599-0.442,0.975
		c-0.096,0.375-0.144,0.785-0.144,1.23c0,0.428,0.039,0.829,0.118,1.204c0.078,0.376,0.21,0.703,0.394,0.983s0.43,0.503,0.738,0.667
		c0.309,0.165,0.693,0.247,1.154,0.247c0.42,0,0.784-0.075,1.093-0.225c0.309-0.15,0.563-0.361,0.761-0.633s0.344-0.595,0.437-0.971
		C273.357,43.062,273.404,42.648,273.404,42.197z"/>
	<path fill="#FFFFFF" d="M278.837,45.36c0,0.41-0.067,0.683-0.203,0.818s-0.383,0.204-0.741,0.204c-0.347,0-0.586-0.066-0.719-0.199
		s-0.199-0.398-0.199-0.798c0-0.409,0.067-0.683,0.203-0.818s0.383-0.203,0.741-0.203c0.347,0,0.586,0.066,0.719,0.199
		S278.837,44.962,278.837,45.36z"/>
	<path fill="#FFFFFF" d="M283.36,45.065c0,0.18-0.009,0.344-0.026,0.494s-0.046,0.292-0.087,0.425
		c-0.04,0.133-0.094,0.264-0.16,0.394c-0.066,0.131-0.148,0.268-0.247,0.412l-1.187,1.785c-0.029,0.04-0.063,0.074-0.1,0.104
		c-0.038,0.029-0.084,0.055-0.139,0.078s-0.118,0.039-0.19,0.048s-0.164,0.013-0.273,0.013c-0.098,0-0.181-0.004-0.247-0.013
		s-0.114-0.023-0.143-0.044c-0.029-0.02-0.045-0.047-0.048-0.082c-0.003-0.034,0.007-0.075,0.03-0.121l1.152-2.383v-1.109
		c0-0.156,0.016-0.28,0.048-0.372c0.031-0.093,0.082-0.162,0.151-0.208c0.069-0.047,0.156-0.078,0.26-0.096
		c0.104-0.018,0.231-0.025,0.382-0.025c0.145,0,0.269,0.008,0.372,0.025c0.104,0.018,0.189,0.049,0.256,0.096
		c0.066,0.046,0.115,0.115,0.147,0.208C283.344,44.785,283.36,44.909,283.36,45.065z"/>
	<path fill="#FFFFFF" d="M295.89,45.655c0,0.115-0.006,0.212-0.018,0.29s-0.03,0.145-0.057,0.199
		c-0.025,0.055-0.058,0.095-0.095,0.121c-0.038,0.026-0.083,0.039-0.135,0.039h-4.956c-0.133,0-0.259-0.045-0.377-0.135
		c-0.118-0.089-0.178-0.246-0.178-0.472V35.317c0-0.046,0.012-0.086,0.035-0.121c0.022-0.034,0.063-0.062,0.121-0.082
		s0.136-0.038,0.233-0.052c0.099-0.015,0.217-0.022,0.355-0.022c0.145,0,0.265,0.008,0.359,0.022
		c0.096,0.014,0.172,0.031,0.23,0.052c0.058,0.021,0.098,0.048,0.121,0.082c0.022,0.035,0.034,0.075,0.034,0.121v9.696h4.021
		c0.052,0,0.097,0.013,0.135,0.039c0.037,0.026,0.069,0.063,0.095,0.112c0.026,0.05,0.045,0.114,0.057,0.195
		S295.89,45.539,295.89,45.655z"/>
	<path fill="#FFFFFF" d="M303.263,35.733c0,0.11-0.006,0.205-0.018,0.286s-0.03,0.146-0.057,0.195
		c-0.025,0.049-0.058,0.085-0.095,0.108c-0.038,0.022-0.079,0.034-0.126,0.034h-3.153v9.722c0,0.047-0.012,0.087-0.035,0.122
		c-0.023,0.034-0.063,0.062-0.121,0.082s-0.135,0.037-0.229,0.052c-0.096,0.015-0.216,0.021-0.36,0.021
		c-0.138,0-0.257-0.007-0.354-0.021c-0.099-0.015-0.177-0.031-0.234-0.052s-0.098-0.048-0.121-0.082
		c-0.023-0.035-0.035-0.075-0.035-0.122v-9.722h-3.153c-0.047,0-0.088-0.012-0.126-0.034c-0.037-0.023-0.067-0.06-0.091-0.108
		s-0.042-0.114-0.057-0.195s-0.021-0.176-0.021-0.286c0-0.109,0.007-0.206,0.021-0.29s0.033-0.151,0.057-0.203
		c0.023-0.053,0.054-0.09,0.091-0.113c0.038-0.022,0.079-0.034,0.126-0.034h7.798c0.047,0,0.088,0.012,0.126,0.034
		c0.037,0.023,0.069,0.061,0.095,0.113c0.026,0.052,0.045,0.119,0.057,0.203S303.263,35.624,303.263,35.733z"/>
	<path fill="#FFFFFF" d="M313.504,40.534c0,0.97-0.124,1.818-0.372,2.543s-0.611,1.325-1.088,1.802s-1.061,0.834-1.754,1.07
		c-0.693,0.237-1.52,0.355-2.479,0.355h-2.374c-0.133,0-0.259-0.045-0.377-0.135c-0.118-0.089-0.178-0.246-0.178-0.472v-9.999
		c0-0.226,0.06-0.383,0.178-0.473c0.118-0.089,0.244-0.134,0.377-0.134h2.539c0.97,0,1.79,0.125,2.461,0.377
		c0.67,0.251,1.231,0.612,1.685,1.083c0.454,0.471,0.798,1.041,1.031,1.711C313.388,38.934,313.504,39.69,313.504,40.534z
		 M311.937,40.595c0-0.606-0.075-1.171-0.226-1.694c-0.15-0.522-0.386-0.975-0.706-1.355c-0.321-0.382-0.727-0.679-1.218-0.893
		s-1.123-0.321-1.897-0.321h-1.517v8.726h1.534c0.716,0,1.319-0.089,1.811-0.269c0.491-0.179,0.901-0.453,1.23-0.823
		c0.329-0.369,0.576-0.833,0.741-1.391C311.854,42.018,311.937,41.357,311.937,40.595z"/>
</g>
<g display="none" enable-background="new    ">
	<path display="inline" fill="#FFFFFF" stroke="#FFFFFF" stroke-width="0.5" stroke-miterlimit="10" d="M130.389,17.066
		c-0.528,1.263-1.182,2.3-1.963,3.111l-0.669-0.449c0.776-0.761,1.43-1.747,1.963-2.959L130.389,17.066z M141.031,9.839h-2.807
		c-0.781,1.069-1.555,1.889-2.32,2.457c1.263-0.102,2.196-0.19,2.799-0.267c0.538-0.532,0.893-0.895,1.065-1.088l0.624,0.502
		c-1.309,1.445-2.784,2.706-4.428,3.781c0.883-0.046,2.031-0.186,3.446-0.419c-0.081-0.213-0.269-0.515-0.563-0.905l0.654-0.403
		c0.563,0.812,0.974,1.55,1.232,2.214l-0.669,0.389c-0.076-0.224-0.175-0.432-0.297-0.624c-2.262,0.36-4.001,0.567-5.218,0.624
		l-0.19-0.716c1.329-0.725,2.488-1.566,3.477-2.525c-1.04,0.102-2.089,0.195-3.149,0.281l-0.122-0.715
		c0.999-0.558,1.896-1.42,2.693-2.586h-5.127c-0.963,1.191-1.762,2-2.396,2.427c0.75-0.041,1.633-0.13,2.647-0.267
		c0.446-0.446,0.809-0.834,1.087-1.164l0.654,0.449c-1.628,1.729-3.111,3.043-4.45,3.94c1.354-0.143,2.371-0.276,3.051-0.403
		c-0.036-0.137-0.175-0.434-0.418-0.891l0.669-0.372c0.492,0.923,0.834,1.696,1.027,2.32l-0.7,0.402
		c-0.127-0.41-0.216-0.664-0.267-0.76c-1.618,0.232-3.273,0.446-4.967,0.639l-0.16-0.685c1.288-0.71,2.487-1.588,3.598-2.632
		c-0.943,0.096-1.98,0.18-3.111,0.251l-0.221-0.67c0.979-0.472,1.955-1.334,2.929-2.586h-3.271V9.055h13.198V9.839z M132.534,8.34
		l-0.7,0.449c-0.289-0.37-0.71-0.802-1.263-1.294l0.738-0.434C131.786,7.443,132.194,7.869,132.534,8.34z M138.148,18.557
		c-0.071,0.729-0.195,1.235-0.373,1.518c-0.177,0.281-0.411,0.455-0.7,0.521c-0.289,0.066-1.245,0.099-2.868,0.099
		c-0.928,0-1.487-0.023-1.678-0.072c-0.19-0.048-0.372-0.182-0.544-0.402s-0.258-0.488-0.258-0.803v-2.853h0.761v2.853
		c0,0.188,0.092,0.316,0.277,0.388s1,0.106,2.446,0.106c0.908,0,1.466-0.026,1.674-0.08c0.208-0.053,0.373-0.574,0.494-1.563
		L138.148,18.557z M135.874,18.526l-0.654,0.457c-0.437-0.821-0.905-1.509-1.407-2.062l0.639-0.449
		C135.121,17.269,135.595,17.954,135.874,18.526z M138.407,7.496c-0.487,0.584-0.948,1.015-1.384,1.294l-0.73-0.449
		c0.649-0.456,1.111-0.872,1.385-1.247L138.407,7.496z M141.077,19.82l-0.685,0.456c-0.533-1.131-1.182-2.211-1.948-3.24
		l0.616-0.427C139.898,17.746,140.57,18.815,141.077,19.82z"/>
	<path display="inline" fill="#FFFFFF" stroke="#FFFFFF" stroke-width="0.5" stroke-miterlimit="10" d="M157.81,8.325v0.716h-6.253
		v1.072h4.831v4.412h-0.836c0.953,0.883,1.643,1.615,2.069,2.198l-0.624,0.495c-0.208-0.279-0.467-0.602-0.776-0.967
		c-4.108,0.264-7.988,0.391-11.639,0.381l-0.221-0.708c2.5,0.021,4.635-0.005,6.405-0.076v-1.323h-4.815v-4.412h4.815V9.041h-6.245
		V8.325h6.245V7.184h0.791v1.141H157.81z M147.061,17.628c-0.548,1.02-1.187,1.897-1.917,2.632l-0.654-0.486
		c0.735-0.726,1.375-1.593,1.917-2.602L147.061,17.628z M150.765,11.969v-1.164h-4.001v1.164H150.765z M150.765,13.825v-1.217
		h-4.001v1.217H150.765z M154.881,18.777c-0.102,0.619-0.243,1.072-0.422,1.358c-0.18,0.286-0.426,0.469-0.738,0.548
		c-0.312,0.078-1.016,0.118-2.111,0.118c-1.48,0-2.381-0.07-2.7-0.21c-0.32-0.14-0.479-0.442-0.479-0.909v-2.495h0.761v2.275
		c0,0.243,0.089,0.4,0.267,0.472c0.177,0.07,0.829,0.106,1.955,0.106c1.273,0,2.016-0.063,2.229-0.187s0.37-0.593,0.472-1.403
		L154.881,18.777z M153.009,18.542l-0.654,0.502c-0.477-0.608-1.06-1.164-1.75-1.666l0.654-0.486
		C151.894,17.347,152.477,17.898,153.009,18.542z M155.611,11.969v-1.164h-4.055v1.164H155.611z M155.611,13.825v-1.217h-4.055
		v1.217H155.611z M155.451,15.583c-0.279-0.279-0.522-0.502-0.73-0.67l0.502-0.388h-3.667v1.278L155.451,15.583z M157.81,19.79
		l-0.654,0.486c-0.533-0.907-1.215-1.76-2.046-2.556l0.654-0.518C156.757,18.243,157.439,19.104,157.81,19.79z"/>
	<path display="inline" fill="#FFFFFF" stroke="#FFFFFF" stroke-width="0.5" stroke-miterlimit="10" d="M166.295,9.588h-5.156V8.82
		h2.305c-0.147-0.432-0.355-0.913-0.624-1.445l0.753-0.327c0.294,0.563,0.543,1.153,0.746,1.772h1.977V9.588z M165.756,11.817
		h-4.321v-0.783h4.321V11.817z M165.756,14.076h-4.321v-0.768h4.321V14.076z M165.642,20.443h-0.792v-0.852h-2.54v1.179h-0.776
		v-5.233h4.108V20.443z M164.85,18.808v-2.473h-2.54v2.473H164.85z M174.725,11.596l-0.51,0.639
		c-1.674-1.272-2.896-2.525-3.667-3.758c-1.029,1.42-2.295,2.638-3.796,3.651l-0.623-0.578c2.094-1.384,3.531-2.875,4.313-4.473
		l0.761,0.297c-0.035,0.132-0.097,0.266-0.183,0.403C171.78,9.071,173.016,10.343,174.725,11.596z M174.648,16.039
		c-1.739,1.907-4.248,3.479-7.523,4.717l-0.594-0.654c3.19-1.06,5.708-2.606,7.554-4.641L174.648,16.039z M173.31,13.292
		c-1.547,1.831-3.604,3.267-6.169,4.306l-0.563-0.624c2.495-0.958,4.547-2.37,6.154-4.237L173.31,13.292z M171.856,11.223
		c-1.207,1.375-2.738,2.521-4.595,3.438l-0.578-0.616c1.907-0.897,3.413-2.005,4.519-3.324L171.856,11.223z"/>
	<path display="inline" fill="#FFFFFF" stroke="#FFFFFF" stroke-width="0.5" stroke-miterlimit="10" d="M184.306,7.907
		c-1.481,0.624-3.022,1.022-4.625,1.194v1.856h4.077v4.533h-4.093c-0.137,2.237-0.548,3.977-1.232,5.219l-0.685-0.479
		c0.756-1.476,1.134-3.228,1.134-5.256V8.462c2.109-0.233,3.798-0.654,5.066-1.263L184.306,7.907z M182.967,14.7v-2.981h-3.286V14.7
		H182.967z M191.456,12.889h-1.772v7.98h-0.769v-7.98h-2.799c0.005,2.136-0.172,3.718-0.529,4.747s-0.908,2.107-1.654,3.233
		l-0.654-0.533c0.883-1.247,1.443-2.364,1.682-3.351s0.357-2.294,0.357-3.922V8.31c2.114-0.102,3.958-0.472,5.53-1.11l0.426,0.707
		c-1.385,0.568-3.104,0.94-5.157,1.118v3.104h5.34V12.889z"/>
</g>
<g>
	<polyline fill="#ED9027" points="12.77,23.618 13.971,24.372 15.243,20.389 14.077,19.658 	"/>
	
		<radialGradient id="SVGID_11_" cx="-21.1431" cy="81.6973" r="147.2546" fx="4.4517" fy="79.8237" gradientTransform="matrix(0.4823 0 0 0.5005 90.3137 -20.8845)" gradientUnits="userSpaceOnUse">
		<stop  offset="0" style="stop-color:#E55927"/>
		<stop  offset="0.05" style="stop-color:#E67029"/>
		<stop  offset="0.1569" style="stop-color:#EBA52F"/>
		<stop  offset="0.3005" style="stop-color:#F2E636"/>
		<stop  offset="0.3657" style="stop-color:#EEC032"/>
		<stop  offset="0.4964" style="stop-color:#E55927"/>
		<stop  offset="0.5353" style="stop-color:#E66D29"/>
		<stop  offset="0.6161" style="stop-color:#EA9A2E"/>
		<stop  offset="0.7311" style="stop-color:#F1D834"/>
		<stop  offset="0.7586" style="stop-color:#F2E636"/>
		<stop  offset="1" style="stop-color:#E55927"/>
	</radialGradient>
	<path fill="url(#SVGID_11_)" d="M17.75,28.09c0-12.027,17.989-21.778,40.18-21.778c15.42,0,28.804,4.71,35.539,11.618
		C87.43,9.499,72.502,3.529,55.029,3.529c-22.816,0-41.313,10.176-41.313,22.728c0,9.091,9.708,16.933,23.729,20.568
		C25.656,43.029,17.75,36.062,17.75,28.09z"/>
	<g>
		
			<radialGradient id="SVGID_12_" cx="29.042" cy="107.124" r="21.7964" gradientTransform="matrix(0.4823 0 0 0.5005 90.3137 -20.8845)" gradientUnits="userSpaceOnUse">
			<stop  offset="0" style="stop-color:#FFFFFF"/>
			<stop  offset="0.3748" style="stop-color:#DFDEDE"/>
			<stop  offset="0.782" style="stop-color:#C0BEBE"/>
			<stop  offset="1" style="stop-color:#B4B3B3"/>
		</radialGradient>
		<path fill="url(#SVGID_12_)" d="M98.031,32.819c1.282-1.378,3.228-2.257,5.405-2.257c3.861,0,6.993,2.764,6.993,6.173
			s-3.132,6.173-6.993,6.173c-3.824,0-6.927-2.711-6.987-6.074"/>
		
			<radialGradient id="SVGID_13_" cx="29.0332" cy="107.125" r="21.7857" gradientTransform="matrix(0.4823 0 0 0.5005 90.3137 -20.8845)" gradientUnits="userSpaceOnUse">
			<stop  offset="0" style="stop-color:#FFFFFF"/>
			<stop  offset="0.3748" style="stop-color:#DFDEDE"/>
			<stop  offset="0.782" style="stop-color:#C0BEBE"/>
			<stop  offset="1" style="stop-color:#B4B3B3"/>
		</radialGradient>
		<path fill="url(#SVGID_13_)" d="M98.031,32.819c-0.991,1.065-1.588,2.429-1.588,3.916c0,0.033,0.005,0.065,0.006,0.099"/>
		
			<radialGradient id="SVGID_14_" cx="29.0386" cy="107.125" r="21.7931" gradientTransform="matrix(0.4823 0 0 0.5005 90.3137 -20.8845)" gradientUnits="userSpaceOnUse">
			<stop  offset="0" style="stop-color:#FFFFFF"/>
			<stop  offset="0.3748" style="stop-color:#DFDEDE"/>
			<stop  offset="0.782" style="stop-color:#C0BEBE"/>
			<stop  offset="1" style="stop-color:#B4B3B3"/>
		</radialGradient>
		<polyline fill="url(#SVGID_14_)" points="98.031,32.819 98.417,32.977 96.886,37.014 96.449,36.834 		"/>
		
			<radialGradient id="SVGID_15_" cx="29.0347" cy="107.126" r="21.7867" gradientTransform="matrix(0.4823 0 0 0.5005 90.3137 -20.8845)" gradientUnits="userSpaceOnUse">
			<stop  offset="0" style="stop-color:#FFFFFF"/>
			<stop  offset="0.3748" style="stop-color:#DFDEDE"/>
			<stop  offset="0.782" style="stop-color:#C0BEBE"/>
			<stop  offset="1" style="stop-color:#B4B3B3"/>
		</radialGradient>
		<polyline fill="url(#SVGID_15_)" points="98.031,32.819 96.323,32.121 94.791,36.156 96.449,36.834 		"/>
	</g>
	<linearGradient id="SVGID_16_" gradientUnits="userSpaceOnUse" x1="13.9473" y1="34.8672" x2="99.1027" y2="26.4635">
		<stop  offset="0" style="stop-color:#999999"/>
		<stop  offset="0.0963" style="stop-color:#9B9B9B"/>
		<stop  offset="0.1466" style="stop-color:#A2A1A2"/>
		<stop  offset="0.1863" style="stop-color:#AEADAC"/>
		<stop  offset="0.2204" style="stop-color:#BFBDBD"/>
		<stop  offset="0.2509" style="stop-color:#D4D2D2"/>
		<stop  offset="0.2785" style="stop-color:#EEEEEE"/>
		<stop  offset="0.2938" style="stop-color:#FFFFFF"/>
		<stop  offset="0.3241" style="stop-color:#E0DFDF"/>
		<stop  offset="0.3594" style="stop-color:#C2C0C0"/>
		<stop  offset="0.3927" style="stop-color:#ACAAAA"/>
		<stop  offset="0.4228" style="stop-color:#9E9D9E"/>
		<stop  offset="0.4469" style="stop-color:#999999"/>
		<stop  offset="0.5106" style="stop-color:#BDBBBA"/>
		<stop  offset="0.6203" style="stop-color:#FFFFFF"/>
		<stop  offset="0.6963" style="stop-color:#E2E2E2"/>
		<stop  offset="0.7453" style="stop-color:#CCCCCC"/>
		<stop  offset="0.768" style="stop-color:#D8D8D8"/>
		<stop  offset="0.8315" style="stop-color:#F5F5F5"/>
		<stop  offset="0.8662" style="stop-color:#FFFFFF"/>
		<stop  offset="0.9056" style="stop-color:#FDFEFE"/>
		<stop  offset="0.9318" style="stop-color:#F6F6F6"/>
		<stop  offset="0.9542" style="stop-color:#E9E8E8"/>
		<stop  offset="0.9744" style="stop-color:#D6D5D5"/>
		<stop  offset="0.993" style="stop-color:#BFBDBD"/>
		<stop  offset="1" style="stop-color:#B4B3B3"/>
	</linearGradient>
	<path fill="url(#SVGID_16_)" d="M94.438,26.639c0,12.027-17.988,21.777-40.18,21.777c-15.42,0-28.803-4.709-35.54-11.617
		c6.04,8.431,20.967,14.4,38.44,14.4c22.815,0,41.313-10.176,41.313-22.727c0-9.092-9.707-16.934-23.728-20.569
		C86.532,11.699,94.438,18.667,94.438,26.639z"/>
	<g>
		
			<radialGradient id="SVGID_17_" cx="-103.0322" cy="95.9697" r="21.4282" gradientTransform="matrix(0.4823 0 0 0.5005 90.3137 -20.8845)" gradientUnits="userSpaceOnUse">
			<stop  offset="0" style="stop-color:#CB6816"/>
			<stop  offset="0.0418" style="stop-color:#CD7015"/>
			<stop  offset="0.1125" style="stop-color:#D28616"/>
			<stop  offset="0.2033" style="stop-color:#DDA71E"/>
			<stop  offset="0.3096" style="stop-color:#EBD32D"/>
			<stop  offset="0.3547" style="stop-color:#F2E636"/>
			<stop  offset="0.4604" style="stop-color:#F2D93A"/>
			<stop  offset="0.6794" style="stop-color:#F2B53F"/>
			<stop  offset="0.7291" style="stop-color:#F1AB40"/>
			<stop  offset="0.8376" style="stop-color:#DB8431"/>
			<stop  offset="0.9435" style="stop-color:#CA6529"/>
			<stop  offset="1" style="stop-color:#C35927"/>
		</radialGradient>
		<path fill="url(#SVGID_17_)" d="M40.53,19.197c-0.932,1.885-1.851,4.284-2.756,7.196c-0.637,2.065-0.955,3.791-0.955,5.179
			c0,1.547,0.325,2.748,0.976,3.605c0.651,0.858,1.465,1.287,2.444,1.287c0.925,0,1.792-0.265,2.604-0.794
			c1.08-0.698,2.08-1.764,2.998-3.193c0.92-1.43,1.669-3.142,2.252-5.14c0.581-1.995,0.872-3.862,0.872-5.599
			c0-1.208-0.227-2.351-0.68-3.432c-0.24-0.551-0.374-0.879-0.4-0.985c-0.037-0.148-0.057-0.307-0.057-0.477
			c0-0.317,0.086-0.577,0.257-0.778c0.172-0.201,0.382-0.302,0.63-0.302c0.435,0,0.776,0.265,1.025,0.794
			c0.36,0.72,0.54,1.837,0.54,3.352c0,3.241-0.618,6.465-1.855,9.673c-1.237,3.209-2.667,5.502-4.287,6.879
			c-1.621,1.377-3.321,2.065-5.104,2.065c-1.449,0-2.562-0.554-3.337-1.66c-0.776-1.106-1.165-2.47-1.165-4.091
			c0-1.334,0.181-2.7,0.541-4.098c0.471-1.833,1.445-4.57,2.922-8.213c-1.154-0.032-2.188,0.129-3.102,0.483
			c-0.915,0.354-1.572,0.806-1.974,1.355c-0.401,0.549-0.602,1.094-0.602,1.632c0,0.222,0.105,0.523,0.318,0.903
			c0.222,0.434,0.333,0.771,0.333,1.014c0,0.306-0.083,0.56-0.25,0.761c-0.166,0.201-0.374,0.301-0.624,0.301
			c-0.304,0-0.57-0.159-0.796-0.476c-0.226-0.317-0.339-0.729-0.339-1.236c0-0.814,0.207-1.63,0.623-2.449
			c0.416-0.819,0.953-1.477,1.613-1.974s1.475-0.861,2.445-1.094c0.479-0.116,1.477-0.221,2.992-0.317
			C39.668,19.308,40.3,19.25,40.53,19.197z"/>
		
			<radialGradient id="SVGID_18_" cx="-64.6816" cy="99.3496" r="18.4239" gradientTransform="matrix(0.4823 0 0 0.5005 90.3137 -20.8845)" gradientUnits="userSpaceOnUse">
			<stop  offset="0" style="stop-color:#CB6816"/>
			<stop  offset="0.0418" style="stop-color:#CD7015"/>
			<stop  offset="0.1125" style="stop-color:#D28616"/>
			<stop  offset="0.2033" style="stop-color:#DDA71E"/>
			<stop  offset="0.3096" style="stop-color:#EBD32D"/>
			<stop  offset="0.3547" style="stop-color:#F2E636"/>
			<stop  offset="0.4604" style="stop-color:#F2D93A"/>
			<stop  offset="0.6794" style="stop-color:#F2B53F"/>
			<stop  offset="0.7291" style="stop-color:#F1AB40"/>
			<stop  offset="0.8376" style="stop-color:#DB8431"/>
			<stop  offset="0.9435" style="stop-color:#CA6529"/>
			<stop  offset="1" style="stop-color:#C35927"/>
		</radialGradient>
		<path fill="url(#SVGID_18_)" d="M57.354,22.978l0.166-0.714c1.34-0.149,2.485-0.361,3.438-0.638
			c-0.228,0.744-0.475,1.716-0.739,2.916l-1.047,4.473l1.274,0.079c0.591,0.032,1.235-0.137,1.933-0.508s1.32-1.021,1.87-1.954
			c0.549-0.932,0.824-1.938,0.824-3.018c0-1.07-0.334-1.917-1.003-2.542s-1.69-0.938-3.065-0.938c-1.568,0-3.104,0.448-4.606,1.343
			c-1.504,0.895-2.664,2.039-3.48,3.431c-0.815,1.393-1.224,2.768-1.224,4.122c0,0.667,0.105,1.247,0.318,1.739
			c0.212,0.493,0.591,0.978,1.135,1.454c0.453,0.382,0.68,0.752,0.68,1.112c0,0.232-0.074,0.429-0.223,0.587
			c-0.148,0.159-0.325,0.239-0.528,0.239c-0.548,0-1.076-0.43-1.586-1.287c-0.511-0.858-0.766-1.943-0.766-3.257
			c0-2.403,0.803-4.596,2.41-6.577c2.105-2.605,4.93-3.908,8.477-3.908c1.348,0,2.453,0.201,3.316,0.604
			c0.863,0.403,1.51,0.953,1.939,1.652c0.429,0.699,0.644,1.457,0.644,2.272c0,1.038-0.301,2.057-0.904,3.058
			c-0.603,1-1.491,1.808-2.663,2.422c-1.173,0.614-2.478,0.921-3.913,0.921c-0.221,0-0.566-0.016-1.035-0.047l-1.113,4.943
			c-0.185,0.836-0.392,1.661-0.622,2.476c0.719,0.201,1.346,0.302,1.881,0.302c0.672,0,1.396-0.148,2.17-0.445l-0.166,0.889
			c-0.72,0.224-1.328,0.334-1.826,0.334c-0.479,0-1.182-0.058-2.104-0.174c-0.737-0.106-1.338-0.16-1.798-0.16
			c-0.895,0-1.813,0.123-2.753,0.366l0.165-0.842c0.96-0.18,1.614-0.439,1.966-0.778c0.498-0.477,0.903-1.435,1.217-2.875
			l2.09-9.516c0.092-0.444,0.138-0.757,0.138-0.937c0-0.17-0.06-0.321-0.18-0.453c-0.119-0.133-0.263-0.199-0.429-0.199
			C57.566,22.946,57.474,22.957,57.354,22.978z"/>
		
			<radialGradient id="SVGID_19_" cx="-35.8799" cy="99.5078" r="17.9108" gradientTransform="matrix(0.4823 0 0 0.5005 90.3137 -20.8845)" gradientUnits="userSpaceOnUse">
			<stop  offset="0" style="stop-color:#CB6816"/>
			<stop  offset="0.0418" style="stop-color:#CD7015"/>
			<stop  offset="0.1125" style="stop-color:#D28616"/>
			<stop  offset="0.2033" style="stop-color:#DDA71E"/>
			<stop  offset="0.3096" style="stop-color:#EBD32D"/>
			<stop  offset="0.3547" style="stop-color:#F2E636"/>
			<stop  offset="0.4604" style="stop-color:#F2D93A"/>
			<stop  offset="0.6794" style="stop-color:#F2B53F"/>
			<stop  offset="0.7291" style="stop-color:#F1AB40"/>
			<stop  offset="0.8376" style="stop-color:#DB8431"/>
			<stop  offset="0.9435" style="stop-color:#CA6529"/>
			<stop  offset="1" style="stop-color:#C35927"/>
		</radialGradient>
		<path fill="url(#SVGID_19_)" d="M65.336,38.451l0.167-0.858c0.969-0.212,1.617-0.456,1.945-0.73
			c0.327-0.275,0.623-0.765,0.887-1.47c0.263-0.704,0.621-2.158,1.073-4.36c0.6-2.912,1.145-5.009,1.634-6.291
			c0.748-1.928,1.678-3.357,2.791-4.29c1.112-0.932,2.237-1.398,3.372-1.398c0.729,0,1.343,0.212,1.842,0.635
			c0.498,0.424,0.748,0.863,0.748,1.319c0,0.254-0.077,0.471-0.229,0.651c-0.152,0.181-0.334,0.271-0.547,0.271
			c-0.276,0-0.613-0.207-1.009-0.619c-0.443-0.445-0.787-0.736-1.03-0.874c-0.245-0.138-0.482-0.207-0.714-0.207
			c-0.267,0-0.53,0.085-0.788,0.254c-0.359,0.232-0.745,0.675-1.154,1.326c-0.411,0.651-0.838,1.618-1.28,2.899
			c-0.287,0.869-0.653,2.298-1.097,4.29c-0.695,3.167-1.223,5.269-1.583,6.306c-0.259,0.742-0.573,1.356-0.942,1.844
			c1.32-0.328,2.373-0.493,3.157-0.493c0.49,0,0.942,0.034,1.357,0.104c0.416,0.069,1.141,0.241,2.175,0.517
			c0.896,0.243,1.523,0.365,1.883,0.365c0.351,0,0.648-0.125,0.894-0.375c0.243-0.25,0.366-0.534,0.366-0.854
			c0-0.202-0.064-0.484-0.193-0.846c-0.12-0.34-0.181-0.611-0.181-0.813c0-0.286,0.074-0.513,0.223-0.677
			c0.146-0.166,0.341-0.248,0.581-0.248c0.276,0,0.512,0.141,0.706,0.421c0.195,0.28,0.292,0.665,0.292,1.151
			c0,0.922-0.333,1.716-0.998,2.383c-0.665,0.668-1.563,1.002-2.7,1.002c-0.563,0-1.288-0.049-2.175-0.145
			c-2.99-0.307-4.948-0.461-5.871-0.461C67.58,38.18,66.38,38.271,65.336,38.451z"/>
	</g>
	<g>
		
			<radialGradient id="SVGID_20_" cx="476.625" cy="-16.0322" r="28.5889" fx="488.7208" fy="-15.6481" gradientTransform="matrix(-0.4818 -0.0216 0.0208 -0.5001 237.9924 23.4624)" gradientUnits="userSpaceOnUse">
			<stop  offset="0" style="stop-color:#FFFFFF"/>
			<stop  offset="0.0259" style="stop-color:#FFFCF7"/>
			<stop  offset="0.0698" style="stop-color:#FDEFDE"/>
			<stop  offset="0.1262" style="stop-color:#FADAB4"/>
			<stop  offset="0.1928" style="stop-color:#F5BB7A"/>
			<stop  offset="0.2675" style="stop-color:#EE9430"/>
			<stop  offset="0.2759" style="stop-color:#ED9027"/>
			<stop  offset="0.4048" style="stop-color:#EB8527"/>
			<stop  offset="0.7926" style="stop-color:#E66627"/>
			<stop  offset="1" style="stop-color:#E55927"/>
		</radialGradient>
		<path fill="url(#SVGID_20_)" d="M12.772,23.965c-1.339,1.32-3.318,2.111-5.494,2.013c-3.858-0.173-6.871-3.076-6.729-6.482
			c0.143-3.406,3.385-6.026,7.243-5.854c3.821,0.172,6.807,3.02,6.728,6.382"/>
	</g>
	<path fill="#E77B34" d="M12.772,23.965c1.035-1.02,1.687-2.356,1.75-3.841c0.001-0.033-0.003-0.065-0.001-0.099"/>
</g>
<g>
</g>
<g>
</g>
<g>
</g>
<g>
</g>
<g>
</g>
<g>
</g>
</svg>
